<svg width="241" height="241" viewBox="0 0 241 241" fill="none" xmlns="http://www.w3.org/2000/svg">
<g clip-path="url(#clip0_103_40)">
<path d="M109.022 0.596854C15.6627 9.45686 -34.5746 120.667 27.2559 196.622C55.8197 231.857 103.542 249.291 150.59 237.157C175.8 230.65 197.576 216.245 213.095 197.481C280.875 115.941 217.041 -9.71594 109.022 0.596854Z" fill="url(#paint0_radial_103_40)"/>
<path d="M213.586 120.279C213.586 125.721 213.116 131.062 212.216 136.239C211.725 139.022 211.132 141.764 210.417 144.465C206.45 159.279 198.926 172.62 188.825 183.547C185.165 187.516 181.158 191.159 176.844 194.432C172.877 197.461 168.644 200.182 164.208 202.556C158.196 205.768 151.797 208.326 145.09 210.168C137.259 212.316 129.019 213.442 120.513 213.442C116.608 213.442 112.764 213.196 109.002 212.725C77.4732 208.838 50.8108 189.153 37.1934 161.837C31.8773 151.196 28.5445 139.41 27.6653 126.949C27.5017 124.739 27.4199 122.509 27.4199 120.279C27.4199 106.221 30.5278 92.9005 36.0893 80.9508C41.0578 70.2697 48.0096 60.6935 56.4336 52.6929C64.2238 45.2857 73.3021 39.2085 83.3004 34.8501C94.6892 29.8779 107.284 27.1155 120.493 27.1155C160.629 27.1155 194.837 52.5292 207.902 88.1738C211.153 97.0543 213.095 106.549 213.504 116.473C213.566 117.721 213.586 118.989 213.586 120.279Z" fill="url(#paint1_radial_103_40)"/>
<path d="M37.1731 161.837C36.5393 160.568 35.9259 159.258 35.3534 157.949C31.1209 148.393 28.4629 138.019 27.6655 127.113C27.6655 127.051 27.6655 127.01 27.645 126.949C29.5261 126.704 32.1024 127.563 33.9835 132.863C36.4166 139.758 47.744 156.557 37.1731 161.837Z" fill="#F79C41"/>
<path d="M110.291 145.999C110.168 146.756 109.902 147.472 109.514 148.127C106.549 153.447 96.2233 156.066 84.7119 154.082C74.6931 152.342 66.6984 147.595 64.1222 142.439C63.3656 140.925 63.0794 139.39 63.3452 137.855C64.5107 131.144 75.7767 129.527 88.7399 131.799C101.703 134.029 111.456 139.288 110.291 145.999Z" fill="#F79C41"/>
<path d="M82.7078 101.638L82.6874 101.658C80.1111 105.546 72.0756 101.986 62.7315 95.8675C55.1049 90.8748 49.6661 85.9025 49.2981 82.1171C49.2163 81.2577 49.4004 80.4392 49.8706 79.7026C52.4469 75.7739 62.6702 75.5079 72.0347 81.6465C81.3993 87.785 85.2841 97.7091 82.7078 101.638Z" fill="#F79C41"/>
<path d="M185.84 159.013C178.295 165.315 169.258 166.932 165.68 162.614C165.496 162.389 165.332 162.164 165.189 161.919C162.449 157.437 165.721 149.396 172.877 143.441C180.156 137.364 188.805 135.645 192.628 139.39C192.771 139.533 192.915 139.676 193.037 139.82C196.615 144.137 193.405 152.731 185.84 159.013Z" fill="#F79C41"/>
<path d="M131.411 107.347C123.785 113.383 116.035 116.718 111.599 111.112C111.169 110.58 110.822 110.007 110.515 109.393C107.693 103.704 110.474 95.4583 117.385 89.995C125.012 83.9587 135.419 81.1145 142.514 90.0973C142.555 90.1587 142.616 90.2201 142.637 90.2815C146.808 95.8266 138.977 101.372 131.411 107.347Z" fill="#F79C41"/>
<path d="M100.946 191.65C99.8415 192.714 97.6537 193.307 94.2186 193.143C81.6235 192.591 67.9448 177.245 71.7683 172.313C71.8296 172.231 71.891 172.17 71.9523 172.109C75.919 167.627 85.856 175.689 90.9267 178.349C99.2894 182.728 103.869 188.846 100.946 191.65Z" fill="#F79C41"/>
<path d="M150.345 180.334C150.365 183.24 146.419 186.309 140.203 186.575C128.835 187.066 122.353 184.877 120.82 180.825C120.656 180.396 120.554 179.945 120.493 179.454C119.941 174.523 130.348 175.362 135.828 175.076C146.112 174.523 150.324 177.347 150.345 180.334Z" fill="#F79C41"/>
<path d="M184.797 114.959C183.55 116.821 181.137 118.089 178.009 118.089C168.154 118.089 155.007 110.968 156.663 104.38C156.847 103.623 157.133 102.968 157.46 102.436C159.996 98.3435 166.395 100.328 172.55 101.638C184.859 104.257 187.496 110.968 184.797 114.959Z" fill="#F79C41"/>
<path d="M152.799 66.566C152.676 66.2796 152.615 65.9522 152.574 65.6043C152.328 62.8011 155.089 58.7087 160.466 57.2354C163.962 56.2737 168.686 56.3965 171.609 58.1971C172.898 58.9951 173.818 60.1001 174.165 61.6143C174.983 65.3793 154.537 70.9244 152.799 66.566Z" fill="#F79C41"/>
<path d="M96.6117 57.8493C95.9165 58.2586 95.0986 58.1358 94.2194 57.2559C88.1877 51.2197 87.6561 41.357 90.9275 39.7201C92.2156 39.0653 93.3402 38.8607 94.3012 38.963C100.844 39.6996 100.128 55.7213 96.6117 57.8493Z" fill="#F79C41"/>
<path d="M199.887 92.3276C199.457 92.5322 198.946 92.5732 198.394 92.4299C196.104 91.8365 193.119 88.3171 192.219 83.0175C191.708 79.9073 193.262 76.9198 195.286 75.9786C197.535 74.9146 200.377 76.3878 201.522 83.0175C202.197 86.7825 202.095 91.2227 199.887 92.3276Z" fill="#F79C41"/>
<path d="M188.825 183.547C181.771 191.179 173.45 197.625 164.208 202.535C163.165 202.024 162.224 201.267 161.856 200.182C161.529 199.221 161.672 197.993 162.674 196.438C166.498 190.401 170.342 181.091 179.093 180.539C181.649 180.375 183.673 180.682 185.288 181.255C186.842 181.828 187.987 182.646 188.825 183.547Z" fill="#F79C41"/>
<path d="M145.07 210.147C137.239 212.296 128.999 213.421 120.493 213.421C116.588 213.421 112.744 213.176 108.981 212.705C108.981 211.6 109.186 210.413 109.861 209.411C110.515 208.449 111.599 207.671 113.377 207.385C119.941 206.28 123.233 201.901 132.536 202.454C137.361 202.74 140.735 205.093 142.841 207.283C143.884 208.388 144.599 209.411 145.07 210.147Z" fill="#F79C41"/>
<path d="M133.17 40.3953C132.699 42.728 128.753 43.5669 126.852 42.687C126.443 42.5029 126.136 42.2369 125.972 41.9095C124.868 39.7201 132.086 35.6277 133.088 39.1676C133.21 39.6177 133.231 40.027 133.17 40.3953Z" fill="#F79C41"/>
<path d="M104.626 163.556C102.172 162.328 100.25 161.366 100.802 166.297C101.354 171.229 105.178 172.334 108.47 172.334C111.741 172.334 106.814 164.66 104.626 163.556Z" fill="#EF903A"/>
<path d="M59.1732 160.282C56.9855 159.729 56.9855 163.576 55.3497 167.402C53.714 171.229 55.9018 173.971 59.1732 173.971C62.4651 173.971 63.5488 161.366 59.1732 160.282Z" fill="#EF903A"/>
<path d="M49.318 110.948C47.212 109.986 44.9425 108.758 44.3904 110.948C43.8383 113.137 48.766 119.174 51.5058 119.174C54.2457 119.174 55.3293 113.69 49.318 110.948Z" fill="#EF903A"/>
<path d="M213.586 120.279C213.586 125.721 213.116 131.062 212.216 136.239C211.419 135.932 210.601 135.379 209.742 134.52C204.262 129.036 208.413 121.261 209.742 118.621C211.214 115.675 212.686 115.941 213.504 116.452C213.565 117.721 213.586 118.989 213.586 120.279Z" fill="#EF903A"/>
<path d="M157.194 126.294C154.025 125.906 152.266 128.484 157.194 130.673C162.122 132.883 161.569 126.847 157.194 126.294Z" fill="#EF903A"/>
<path d="M39.4626 101.638C37.9905 102.374 37.8269 105.464 41.6504 104.932C45.474 104.38 42.7341 100.001 39.4626 101.638Z" fill="#EF903A"/>
<path d="M117.221 63.2921C115.585 63.8446 113.397 65.4816 117.221 66.034C121.044 66.566 118.857 62.7397 117.221 63.2921Z" fill="#EF903A"/>
<path d="M126.524 63.2921C124.521 62.1258 124.337 67.671 125.972 69.8604C127.608 72.0498 133.088 67.1185 126.524 63.2921Z" fill="#EF903A"/>
<path d="M144.047 193.164C142.861 193.43 142.411 195.353 145.682 196.458C148.974 197.543 148.974 192.059 144.047 193.164Z" fill="#EF903A"/>
<path d="M96.4067 202.474C94.771 203.026 93.1148 204.111 96.4067 205.216C99.6986 206.3 98.0424 201.922 96.4067 202.474Z" fill="#EF903A"/>
<path d="M99.1464 121.915C96.3656 122.059 102.438 125.742 104.074 126.294C105.71 126.847 110.637 121.363 99.1464 121.915Z" fill="#EF903A"/>
<path d="M188.947 107.674C187.578 108.738 190.052 114.795 192.239 114.242C194.427 113.69 193.875 103.827 188.947 107.674Z" fill="#EF903A"/>
<path d="M144.906 146.081C144.661 147.022 144.354 147.943 144.048 148.762C142.453 153.038 133.027 154.716 130.533 152.752C130.471 152.711 130.41 152.649 130.348 152.588C128.161 150.399 130.287 144.894 131.453 142.173C133.088 138.346 141.308 135.605 144.048 136.689C146.256 137.61 145.97 142.091 144.906 146.081Z" fill="#F79C41"/>
<path d="M49.2981 82.1376C49.2163 81.2782 49.4004 80.4597 49.8706 79.7231C52.4469 75.7944 62.6702 75.5284 72.0347 81.6669C81.3993 87.8055 85.2841 97.7295 82.7078 101.658L82.6874 101.679C82.8305 99.2846 81.8286 95.9289 78.3323 91.2431C69.2131 79.0683 52.59 74.8736 49.2981 82.1376Z" fill="#E27C37"/>
<path d="M110.291 145.999C110.168 146.756 109.902 147.472 109.514 148.127C109.289 147.186 107.264 139.799 98.0431 136.709C88.4741 133.517 75.5927 130.673 67.9252 136.709C65.4716 138.633 64.4289 140.618 64.1222 142.418C63.3656 140.904 63.0794 139.37 63.3452 137.835C64.5107 131.123 75.7767 129.507 88.7399 131.778C101.703 134.029 111.456 139.288 110.291 145.999Z" fill="#E27C37"/>
<path d="M125.42 88.4808C115.238 92.0003 110.944 101.986 110.515 109.393C107.693 103.704 110.474 95.4583 117.385 89.995C125.012 83.9587 135.419 81.1145 142.514 90.0973C142.555 90.1587 142.616 90.2201 142.637 90.2815C139.57 87.9079 133.988 85.5343 125.42 88.4808Z" fill="#E27C37"/>
<path d="M144.906 146.081C144.804 142.111 143.823 137.63 139.672 138.899C135.419 140.209 130.594 147.923 130.553 152.752C130.492 152.711 130.43 152.649 130.369 152.588C128.181 150.399 130.308 144.894 131.473 142.173C133.109 138.346 141.328 135.605 144.068 136.689C146.256 137.61 145.97 142.091 144.906 146.081Z" fill="#E27C37"/>
<path d="M184.797 114.959C186.045 107.735 174.472 105.403 168.686 103.295C162.961 101.208 159.035 101.945 157.44 102.436C159.975 98.3435 166.375 100.328 172.53 101.638C184.859 104.257 187.496 110.968 184.797 114.959Z" fill="#E27C37"/>
<path d="M152.799 66.5661C152.676 66.2796 152.615 65.9522 152.574 65.6044C156.029 67.8961 164.883 66.0341 169.769 63.8242C173.266 62.2282 172.693 59.8955 171.609 58.2176C172.898 59.0156 173.818 60.1206 174.165 61.6348C174.983 65.3793 154.537 70.9245 152.799 66.5661Z" fill="#E27C37"/>
<path d="M96.6117 57.8493C95.9165 58.2586 95.0986 58.1358 94.2194 57.2559C88.1877 51.2197 87.6561 41.357 90.9275 39.7201C92.2156 39.0653 93.3402 38.8607 94.3012 38.963C92.9722 39.2086 90.9275 40.3749 90.9275 45.2039C90.9275 50.7695 93.606 55.3325 96.6117 57.8493Z" fill="#E27C37"/>
<path d="M133.17 40.3953C132.986 39.4541 132.25 38.5537 129.816 39.1676C127.833 39.6587 127.077 41.1729 126.852 42.687C126.443 42.5029 126.136 42.2369 125.972 41.9095C124.868 39.7201 132.086 35.6277 133.088 39.1676C133.21 39.6177 133.231 40.027 133.17 40.3953Z" fill="#E27C37"/>
<path d="M100.946 191.65C100.476 188.703 97.7767 185.839 93.1149 183.281C87.0831 179.986 82.7075 176.712 78.884 173.971C76.8803 172.538 74.12 172.149 71.9526 172.109C75.9193 167.627 85.8563 175.689 90.9271 178.349C99.2897 182.728 103.87 188.846 100.946 191.65Z" fill="#E27C37"/>
<path d="M150.345 180.334C149.466 178.145 146.808 177.244 142.391 177.244H127.056C121.188 177.244 120.82 180.641 120.82 180.805C120.656 180.375 120.554 179.925 120.493 179.434C119.941 174.503 130.348 175.342 135.828 175.055C146.112 174.523 150.324 177.347 150.345 180.334Z" fill="#E27C37"/>
<path d="M142.841 207.303C143.884 208.367 144.599 209.411 145.07 210.147C137.239 212.296 128.999 213.421 120.493 213.421C116.588 213.421 112.744 213.176 108.981 212.705C108.981 211.6 109.186 210.413 109.861 209.411C128.058 213.708 138.547 209.718 142.841 207.303Z" fill="#E27C37"/>
<path d="M188.825 183.547C181.771 191.179 173.449 197.625 164.207 202.535C163.165 202.024 162.224 201.267 161.856 200.182C177.13 194.453 183.734 184.079 185.288 181.276C186.842 181.828 187.987 182.646 188.825 183.547Z" fill="#E27C37"/>
<path d="M192.628 139.39C191.402 138.96 182.671 136.525 172.509 148.209C167.377 154.123 165.598 158.706 165.189 161.919C162.449 157.437 165.721 149.396 172.877 143.441C180.156 137.385 188.805 135.645 192.628 139.39Z" fill="#E27C37"/>
<path d="M198.394 92.4094C196.104 91.816 193.119 88.2966 192.219 82.997C191.708 79.8868 193.262 76.8993 195.286 75.9581C194.407 77.1244 193.589 78.9046 193.855 81.36C194.325 85.3296 195.818 89.2992 198.394 92.4094Z" fill="#E27C37"/>
<path d="M37.1731 161.837C36.5393 160.568 35.9259 159.258 35.3534 157.949C37.9706 155.575 40.5468 151.237 37.2754 144.383C33.227 135.891 31.2641 128.586 27.6655 127.113C27.6655 127.051 27.6655 127.01 27.645 126.949C29.5261 126.704 32.1024 127.563 33.9835 132.863C36.4166 139.758 47.744 156.557 37.1731 161.837Z" fill="#E27C37"/>
<path opacity="0.35" d="M213.586 120.279C213.586 125.721 213.116 131.062 212.216 136.239C209.088 154.327 200.746 170.635 188.805 183.547C181.751 191.179 173.429 197.625 164.187 202.535C158.176 205.748 151.776 208.306 145.07 210.147C137.238 212.296 128.998 213.421 120.493 213.421C116.587 213.421 112.743 213.176 108.981 212.705C77.4526 208.817 50.7903 189.133 37.1729 161.816C31.8568 151.176 28.524 139.39 27.6448 126.929C27.4812 124.719 27.3994 122.488 27.3994 120.258C27.3994 106.201 30.5073 92.88 36.0688 80.9303C36.9684 161.612 203.444 181.889 207.902 88.1329C211.153 97.0134 213.095 106.508 213.504 116.432C213.566 117.721 213.586 118.989 213.586 120.279Z" fill="url(#paint2_linear_103_40)"/>
<path opacity="0.45" d="M176.844 194.433C172.877 197.461 168.644 200.182 164.208 202.556C158.196 205.768 151.797 208.326 145.09 210.168C137.259 212.316 129.019 213.442 120.513 213.442C116.608 213.442 112.764 213.196 109.002 212.725C77.4732 208.838 50.8108 189.153 37.1934 161.837C31.8773 151.197 28.5445 139.41 27.6653 126.949C27.5017 124.739 27.4199 122.509 27.4199 120.279C27.4199 106.221 30.5278 92.9005 36.0893 80.9508C41.0578 70.2697 48.0096 60.6935 56.4336 52.6929C30.4665 176.631 125.972 193.798 176.844 194.433Z" fill="url(#paint3_linear_103_40)"/>
<path d="M213.586 120.279C213.586 125.721 213.116 131.062 212.216 136.239C211.725 139.022 211.132 141.764 210.417 144.465C207.186 69.533 156.479 26.9314 83.3003 34.8501C94.689 29.8779 107.284 27.1155 120.493 27.1155C160.629 27.1155 194.836 52.5292 207.902 88.1738C211.153 97.0543 213.095 106.549 213.504 116.473C213.565 117.721 213.586 118.989 213.586 120.279Z" fill="url(#paint4_linear_103_40)"/>
</g>
<defs>
<radialGradient id="paint0_radial_103_40" cx="0" cy="0" r="1" gradientUnits="userSpaceOnUse" gradientTransform="translate(120.502 120.493) scale(111.5 111.584)">
<stop stop-color="#FFD86C"/>
<stop offset="1" stop-color="#FFD160" stop-opacity="0"/>
</radialGradient>
<radialGradient id="paint1_radial_103_40" cx="0" cy="0" r="1" gradientUnits="userSpaceOnUse" gradientTransform="translate(116.392 70.9566) scale(142.146 142.253)">
<stop stop-color="#FFE46A"/>
<stop offset="1" stop-color="#FFA44A"/>
</radialGradient>
<linearGradient id="paint2_linear_103_40" x1="40.9815" y1="169.518" x2="205.657" y2="92.5323" gradientUnits="userSpaceOnUse">
<stop stop-color="#E27437"/>
<stop offset="1" stop-color="#E27437" stop-opacity="0.2"/>
</linearGradient>
<linearGradient id="paint3_linear_103_40" x1="102.511" y1="255.021" x2="101.602" y2="24.1453" gradientUnits="userSpaceOnUse">
<stop stop-color="#CC622E"/>
<stop offset="1" stop-color="#CC622E" stop-opacity="0.2"/>
</linearGradient>
<linearGradient id="paint4_linear_103_40" x1="203.299" y1="27.0744" x2="146.618" y2="89.8295" gradientUnits="userSpaceOnUse">
<stop stop-color="#FFF2B6"/>
<stop offset="1" stop-color="#FFF49A" stop-opacity="0.2"/>
</linearGradient>
<clipPath id="clip0_103_40">
<rect width="241" height="241" fill="white"/>
</clipPath>
</defs>
</svg>
