<svg width="242" height="242" viewBox="0 0 242 242" fill="none" xmlns="http://www.w3.org/2000/svg">
<g clip-path="url(#clip0_103_189)">
<path d="M109.474 0.599331C15.7277 9.4961 -34.7181 121.168 27.369 197.438C56.0514 232.819 103.972 250.325 151.215 238.141C176.53 231.607 198.396 217.142 213.979 198.301C282.041 116.422 217.942 -9.75626 109.474 0.599331Z" fill="url(#paint0_radial_103_189)"/>
<path d="M214.472 120.778C214.472 126.243 214 131.606 213.096 136.804C212.603 139.599 212.008 142.352 211.289 145.064C207.306 159.94 199.751 173.336 189.608 184.308C185.933 188.294 181.909 191.952 177.577 195.239C173.594 198.28 169.344 201.013 164.888 203.396C158.852 206.622 152.426 209.191 145.692 211.04C137.828 213.197 129.554 214.327 121.013 214.327C117.091 214.327 113.231 214.081 109.454 213.608C77.7942 209.704 51.0212 189.938 37.3472 162.508C32.0091 151.824 28.6625 139.989 27.7796 127.476C27.6154 125.257 27.5332 123.017 27.5332 120.778C27.5332 106.662 30.654 93.286 36.2385 81.2867C41.2277 70.5612 48.2084 60.9453 56.6673 52.9115C64.4898 45.4736 73.6057 39.3712 83.6456 34.9947C95.0816 30.0018 107.729 27.228 120.992 27.228C161.295 27.228 195.644 52.7472 208.764 88.5397C212.029 97.457 213.979 106.991 214.39 116.956C214.451 118.209 214.472 119.483 214.472 120.778Z" fill="url(#paint1_radial_103_189)"/>
<path d="M37.3269 162.508C36.6905 161.234 36.0745 159.919 35.4996 158.604C31.2496 149.009 28.5806 138.592 27.7798 127.64C27.7798 127.579 27.7798 127.537 27.7593 127.476C29.6482 127.229 32.2351 128.092 34.124 133.414C36.5673 140.338 47.9417 157.207 37.3269 162.508Z" fill="#BCBCBC"/>
<path d="M110.747 146.605C110.624 147.365 110.357 148.084 109.967 148.742C106.99 154.084 96.6219 156.714 85.0627 154.721C75.0023 152.974 66.9745 148.208 64.3875 143.03C63.6278 141.509 63.3404 139.968 63.6073 138.427C64.7776 131.688 76.0904 130.065 89.1074 132.346C102.124 134.585 111.918 139.866 110.747 146.605Z" fill="#BCBCBC"/>
<path d="M83.0507 102.059L83.0301 102.08C80.4431 105.984 72.3743 102.409 62.9914 96.2653C55.3332 91.2518 49.8718 86.259 49.5023 82.4578C49.4201 81.5948 49.605 80.773 50.0772 80.0333C52.6641 76.0883 62.9298 75.8212 72.3332 81.9852C81.7366 88.1493 85.6376 98.1145 83.0507 102.059Z" fill="#BCBCBC"/>
<path d="M186.611 159.673C179.035 166.001 169.96 167.624 166.367 163.289C166.182 163.063 166.018 162.837 165.874 162.59C163.123 158.091 166.408 150.016 173.594 144.037C180.903 137.934 189.588 136.208 193.427 139.968C193.571 140.112 193.715 140.256 193.838 140.4C197.431 144.735 194.208 153.365 186.611 159.673Z" fill="#BCBCBC"/>
<path d="M131.956 107.792C124.298 113.853 116.517 117.203 112.061 111.573C111.63 111.039 111.281 110.463 110.973 109.847C108.14 104.135 110.932 95.8544 117.872 90.3684C125.53 84.3071 135.98 81.4511 143.105 90.4712C143.146 90.5328 143.207 90.5944 143.228 90.6561C147.416 96.2243 139.553 101.792 131.956 107.792Z" fill="#BCBCBC"/>
<path d="M101.364 192.445C100.256 193.513 98.0587 194.109 94.6094 193.945C81.9621 193.39 68.2266 177.98 72.0659 173.028C72.1275 172.946 72.1891 172.884 72.2507 172.823C76.2338 168.323 86.2121 176.418 91.3039 179.089C99.7012 183.487 104.3 189.63 101.364 192.445Z" fill="#BCBCBC"/>
<path d="M150.968 181.082C150.989 184 147.026 187.082 140.785 187.349C129.369 187.842 122.861 185.644 121.321 181.576C121.157 181.144 121.054 180.692 120.992 180.199C120.438 175.247 130.889 176.09 136.391 175.802C146.718 175.247 150.948 178.083 150.968 181.082Z" fill="#BCBCBC"/>
<path d="M185.564 115.436C184.311 117.305 181.888 118.579 178.747 118.579C168.851 118.579 155.649 111.429 157.312 104.813C157.497 104.053 157.785 103.395 158.113 102.861C160.659 98.7515 167.085 100.745 173.265 102.06C185.625 104.69 188.274 111.429 185.564 115.436Z" fill="#BCBCBC"/>
<path d="M153.432 66.8423C153.309 66.5546 153.247 66.2259 153.206 65.8766C152.96 63.0616 155.731 58.9523 161.131 57.4729C164.642 56.5072 169.385 56.6305 172.321 58.4386C173.614 59.2399 174.538 60.3495 174.887 61.8699C175.708 65.6505 155.177 71.2187 153.432 66.8423Z" fill="#BCBCBC"/>
<path d="M97.0117 58.0894C96.3136 58.5003 95.4924 58.377 94.6095 57.4935C88.5527 51.4322 88.0189 41.5287 91.3039 39.8849C92.5974 39.2274 93.7267 39.0219 94.6916 39.1247C101.262 39.8644 100.543 55.9525 97.0117 58.0894Z" fill="#BCBCBC"/>
<path d="M200.716 92.7107C200.285 92.9162 199.771 92.9573 199.217 92.8135C196.917 92.2176 193.92 88.6836 193.017 83.3619C192.503 80.2388 194.064 77.239 196.096 76.2938C198.355 75.2254 201.209 76.7048 202.358 83.3619C203.036 87.1425 202.933 91.6012 200.716 92.7107Z" fill="#BCBCBC"/>
<path d="M189.609 184.308C182.525 191.972 174.169 198.445 164.889 203.376C163.842 202.862 162.897 202.102 162.528 201.013C162.199 200.047 162.343 198.814 163.349 197.253C167.188 191.192 171.048 181.843 179.836 181.288C182.402 181.124 184.435 181.432 186.057 182.007C187.617 182.582 188.767 183.404 189.609 184.308Z" fill="#BCBCBC"/>
<path d="M145.672 211.019C137.808 213.177 129.534 214.307 120.993 214.307C117.071 214.307 113.211 214.06 109.434 213.588C109.434 212.478 109.639 211.286 110.316 210.28C110.973 209.314 112.062 208.533 113.848 208.245C120.438 207.136 123.744 202.739 133.086 203.294C137.931 203.581 141.319 205.944 143.434 208.143C144.481 209.252 145.199 210.28 145.672 211.019Z" fill="#BCBCBC"/>
<path d="M133.722 40.5629C133.25 42.9053 129.287 43.7477 127.378 42.8642C126.967 42.6792 126.659 42.4121 126.495 42.0834C125.386 39.8849 132.634 35.7755 133.64 39.3301C133.763 39.7821 133.784 40.1931 133.722 40.5629Z" fill="#BCBCBC"/>
<path d="M105.06 164.234C102.596 163.001 100.666 162.036 101.22 166.987C101.775 171.939 105.614 173.049 108.919 173.049C112.205 173.049 107.256 165.344 105.06 164.234Z" fill="#9B9B9B"/>
<path d="M59.419 160.947C57.2221 160.392 57.2221 164.255 55.5796 168.097C53.9371 171.939 56.1339 174.692 59.419 174.692C62.7245 174.692 63.8127 162.036 59.419 160.947Z" fill="#9B9B9B"/>
<path d="M49.5223 111.408C47.4075 110.443 45.1285 109.21 44.5742 111.408C44.0198 113.607 48.9679 119.668 51.7191 119.668C54.4703 119.668 55.5585 114.162 49.5223 111.408Z" fill="#9B9B9B"/>
<path d="M214.472 120.778C214.472 126.243 213.999 131.606 213.096 136.804C212.295 136.496 211.474 135.941 210.612 135.078C205.109 129.572 209.277 121.764 210.612 119.113C212.09 116.155 213.568 116.422 214.39 116.935C214.451 118.209 214.472 119.483 214.472 120.778Z" fill="#9B9B9B"/>
<path d="M157.846 126.818C154.664 126.428 152.898 129.017 157.846 131.215C162.794 133.434 162.24 127.373 157.846 126.818Z" fill="#9B9B9B"/>
<path d="M39.6263 102.06C38.1481 102.799 37.9838 105.902 41.8232 105.368C45.6626 104.813 42.9114 100.416 39.6263 102.06Z" fill="#9B9B9B"/>
<path d="M117.707 63.5548C116.065 64.1095 113.868 65.7533 117.707 66.308C121.547 66.8423 119.35 63 117.707 63.5548Z" fill="#9B9B9B"/>
<path d="M127.049 63.5548C125.037 62.3836 124.853 67.9518 126.495 70.1503C128.138 72.3488 133.64 67.397 127.049 63.5548Z" fill="#9B9B9B"/>
<path d="M144.644 193.965C143.453 194.232 143.002 196.164 146.287 197.273C149.592 198.362 149.592 192.856 144.644 193.965Z" fill="#9B9B9B"/>
<path d="M96.8067 203.314C95.1641 203.869 93.5011 204.958 96.8067 206.067C100.112 207.156 98.4492 202.759 96.8067 203.314Z" fill="#9B9B9B"/>
<path d="M99.5575 122.421C96.7653 122.565 102.863 126.264 104.506 126.818C106.148 127.373 111.096 121.867 99.5575 122.421Z" fill="#9B9B9B"/>
<path d="M189.731 108.121C188.356 109.189 190.84 115.271 193.037 114.716C195.234 114.162 194.679 104.258 189.731 108.121Z" fill="#9B9B9B"/>
<path d="M145.507 146.687C145.261 147.632 144.953 148.557 144.645 149.379C143.043 153.673 133.578 155.358 131.073 153.385C131.012 153.344 130.95 153.283 130.889 153.221C128.692 151.023 130.827 145.495 131.997 142.763C133.64 138.921 141.893 136.167 144.645 137.256C146.862 138.181 146.575 142.681 145.507 146.687Z" fill="#BCBCBC"/>
<path d="M49.5023 82.4784C49.4201 81.6154 49.605 80.7935 50.0772 80.0539C52.6641 76.1089 62.9298 75.8418 72.3332 82.0058C81.7366 88.1698 85.6376 98.135 83.0507 102.08L83.0301 102.101C83.1738 99.6966 82.1678 96.3269 78.6569 91.6217C69.4999 79.3964 52.8078 75.1843 49.5023 82.4784Z" fill="#9B9B9B"/>
<path d="M110.747 146.605C110.624 147.365 110.357 148.084 109.967 148.742C109.741 147.797 107.709 140.379 98.4492 137.277C88.8405 134.071 75.9056 131.215 68.2063 137.277C65.7426 139.208 64.6955 141.201 64.3875 143.009C63.6278 141.489 63.3404 139.948 63.6073 138.407C64.7776 131.667 76.0904 130.044 89.1074 132.325C102.124 134.585 111.918 139.866 110.747 146.605Z" fill="#9B9B9B"/>
<path d="M125.94 88.848C115.716 92.382 111.404 102.409 110.973 109.847C108.14 104.135 110.932 95.8544 117.872 90.3684C125.53 84.3071 135.98 81.4511 143.105 90.4712C143.146 90.5328 143.207 90.5944 143.228 90.6561C140.148 88.2726 134.543 85.8892 125.94 88.848Z" fill="#9B9B9B"/>
<path d="M145.507 146.687C145.404 142.701 144.419 138.201 140.251 139.475C135.98 140.79 131.135 148.536 131.094 153.385C131.032 153.344 130.971 153.283 130.909 153.221C128.712 151.023 130.847 145.495 132.018 142.763C133.66 138.921 141.914 136.167 144.665 137.256C146.862 138.181 146.575 142.681 145.507 146.687Z" fill="#9B9B9B"/>
<path d="M185.564 115.436C186.816 108.183 175.195 105.84 169.385 103.724C163.636 101.628 159.694 102.368 158.093 102.861C160.639 98.7515 167.065 100.745 173.245 102.06C185.625 104.69 188.274 111.429 185.564 115.436Z" fill="#9B9B9B"/>
<path d="M153.432 66.8423C153.309 66.5546 153.248 66.2259 153.207 65.8766C156.676 68.1778 165.566 66.3081 170.473 64.089C173.984 62.4864 173.409 60.144 172.321 58.4592C173.615 59.2605 174.539 60.37 174.888 61.8905C175.709 65.6506 155.178 71.2188 153.432 66.8423Z" fill="#9B9B9B"/>
<path d="M97.0117 58.0894C96.3136 58.5003 95.4924 58.377 94.6095 57.4935C88.5527 51.4322 88.0189 41.5287 91.3039 39.8849C92.5974 39.2274 93.7267 39.0219 94.6916 39.1247C93.3571 39.3712 91.3039 40.5424 91.3039 45.3915C91.3039 50.9802 93.9936 55.5621 97.0117 58.0894Z" fill="#9B9B9B"/>
<path d="M133.722 40.5629C133.537 39.6178 132.798 38.7137 130.355 39.3301C128.363 39.8232 127.604 41.3437 127.378 42.8642C126.967 42.6792 126.659 42.4121 126.495 42.0834C125.386 39.8849 132.634 35.7755 133.64 39.3301C133.763 39.7821 133.784 40.1931 133.722 40.5629Z" fill="#9B9B9B"/>
<path d="M101.364 192.445C100.892 189.486 98.1817 186.61 93.5005 184.041C87.4438 180.733 83.05 177.446 79.2106 174.692C77.1986 173.254 74.4268 172.864 72.2505 172.823C76.2336 168.323 86.2119 176.418 91.3036 179.089C99.701 183.487 104.3 189.63 101.364 192.445Z" fill="#9B9B9B"/>
<path d="M150.968 181.082C150.085 178.884 147.416 177.98 142.982 177.98H127.583C121.691 177.98 121.321 181.391 121.321 181.555C121.157 181.124 121.054 180.672 120.992 180.178C120.438 175.227 130.889 176.069 136.391 175.781C146.718 175.247 150.948 178.083 150.968 181.082Z" fill="#9B9B9B"/>
<path d="M143.434 208.163C144.481 209.232 145.199 210.28 145.672 211.019C137.808 213.177 129.534 214.307 120.993 214.307C117.071 214.307 113.211 214.06 109.434 213.588C109.434 212.478 109.639 211.286 110.316 210.28C128.589 214.594 139.122 210.588 143.434 208.163Z" fill="#9B9B9B"/>
<path d="M189.608 184.308C182.525 191.972 174.169 198.445 164.888 203.376C163.841 202.862 162.897 202.102 162.527 201.013C177.864 195.26 184.496 184.843 186.056 182.028C187.617 182.582 188.767 183.404 189.608 184.308Z" fill="#9B9B9B"/>
<path d="M193.427 139.968C192.195 139.537 183.428 137.092 173.224 148.824C168.071 154.762 166.285 159.365 165.874 162.59C163.123 158.091 166.408 150.016 173.594 144.037C180.903 137.955 189.588 136.208 193.427 139.968Z" fill="#9B9B9B"/>
<path d="M199.217 92.7929C196.917 92.197 193.92 88.663 193.017 83.3413C192.503 80.2182 194.064 77.2184 196.096 76.2732C195.213 77.4444 194.392 79.232 194.659 81.6976C195.131 85.6837 196.63 89.6698 199.217 92.7929Z" fill="#9B9B9B"/>
<path d="M37.3269 162.508C36.6905 161.234 36.0745 159.919 35.4996 158.604C38.1277 156.221 40.7146 151.865 37.4296 144.982C33.3644 136.455 31.3934 129.12 27.7798 127.64C27.7798 127.579 27.7798 127.537 27.7593 127.476C29.6482 127.229 32.2351 128.092 34.124 133.414C36.5673 140.338 47.9417 157.207 37.3269 162.508Z" fill="#9B9B9B"/>
<path opacity="0.45" d="M177.577 195.239C173.594 198.28 169.344 201.013 164.888 203.396C158.852 206.622 152.426 209.191 145.692 211.04C137.828 213.197 129.554 214.327 121.013 214.327C117.091 214.327 113.231 214.081 109.454 213.608C77.7942 209.704 51.0212 189.938 37.3472 162.508C32.0091 151.824 28.6625 139.989 27.7796 127.476C27.6154 125.257 27.5332 123.017 27.5332 120.778C27.5332 106.662 30.654 93.286 36.2385 81.2867C41.2277 70.5612 48.2084 60.9453 56.6673 52.9115C30.5924 177.364 126.495 194.602 177.577 195.239Z" fill="url(#paint2_linear_103_189)"/>
<path d="M214.472 120.778C214.472 126.243 214 131.606 213.096 136.804C212.603 139.599 212.008 142.352 211.289 145.064C208.045 69.8216 157.127 27.0431 83.6455 34.9947C95.0815 30.0018 107.729 27.228 120.992 27.228C161.295 27.228 195.644 52.7472 208.764 88.5397C212.028 97.457 213.979 106.991 214.39 116.956C214.451 118.209 214.472 119.483 214.472 120.778Z" fill="url(#paint3_linear_103_189)"/>
</g>
<defs>
<radialGradient id="paint0_radial_103_189" cx="0" cy="0" r="1" gradientUnits="userSpaceOnUse" gradientTransform="translate(121.002 120.993) scale(111.963 112.047)">
<stop stop-color="#F8F8F8"/>
<stop offset="1" stop-color="white" stop-opacity="0"/>
</radialGradient>
<radialGradient id="paint1_radial_103_189" cx="0" cy="0" r="1" gradientUnits="userSpaceOnUse" gradientTransform="translate(116.874 71.251) scale(142.736 142.843)">
<stop stop-color="#E8E8E8"/>
<stop offset="1" stop-color="#DFDFDF"/>
</radialGradient>
<linearGradient id="paint2_linear_103_189" x1="102.936" y1="256.079" x2="102.023" y2="24.2455" gradientUnits="userSpaceOnUse">
<stop/>
<stop offset="1" stop-opacity="0.2"/>
</linearGradient>
<linearGradient id="paint3_linear_103_189" x1="204.143" y1="27.1867" x2="147.226" y2="90.2023" gradientUnits="userSpaceOnUse">
<stop stop-color="#B7B7B7"/>
<stop offset="0.557292" stop-color="#AEAEAE" stop-opacity="0.2"/>
</linearGradient>
<clipPath id="clip0_103_189">
<rect width="242" height="242" fill="white"/>
</clipPath>
</defs>
</svg>
