<svg width="2472" height="1224" viewBox="0 0 2472 1224" fill="none" xmlns="http://www.w3.org/2000/svg">
<path d="M40 42C40 40.8954 40.8954 40 42 40H2430C2431.1 40 2432 40.8954 2432 42V1182C2432 1183.1 2431.1 1184 2430 1184H42C40.8955 1184 40 1183.1 40 1182V42Z" fill="#101010"/>
<path d="M42 41H2430V39H42V41ZM2431 42V1182H2433V42H2431ZM2430 1183H42V1185H2430V1183ZM41 1182V42H39V1182H41ZM42 1183C41.4477 1183 41 1182.55 41 1182H39C39 1183.66 40.3432 1185 42 1185V1183ZM2431 1182C2431 1182.55 2430.55 1183 2430 1183V1185C2431.66 1185 2433 1183.66 2433 1182H2431ZM2430 41C2430.55 41 2431 41.4477 2431 42H2433C2433 40.3431 2431.66 39 2430 39V41ZM42 39C40.3431 39 39 40.3432 39 42H41C41 41.4477 41.4477 41 42 41V39Z" fill="white" fill-opacity="0.1"/>
<g clip-path="url(#clip0_0_1)">
<path d="M1178.02 158.597C1084.66 167.457 1034.43 278.667 1096.26 354.622C1124.82 389.857 1172.54 407.291 1219.59 395.157C1244.8 388.65 1266.58 374.245 1282.09 355.481C1349.88 273.941 1286.04 148.284 1178.02 158.597Z" fill="url(#paint0_radial_0_1)"/>
<path d="M1282.59 278.279C1282.59 283.721 1282.12 289.062 1281.22 294.239C1280.73 297.022 1280.13 299.764 1279.42 302.465C1275.45 317.279 1267.93 330.62 1257.83 341.547C1254.17 345.516 1250.16 349.159 1245.84 352.433C1241.88 355.461 1237.64 358.182 1233.21 360.556C1227.2 363.768 1220.8 366.326 1214.09 368.168C1206.26 370.316 1198.02 371.442 1189.51 371.442C1185.61 371.442 1181.76 371.196 1178 370.725C1146.47 366.838 1119.81 347.153 1106.19 319.837C1100.88 309.196 1097.54 297.41 1096.67 284.949C1096.5 282.739 1096.42 280.509 1096.42 278.279C1096.42 264.221 1099.53 250.901 1105.09 238.951C1110.06 228.27 1117.01 218.693 1125.43 210.693C1133.22 203.286 1142.3 197.209 1152.3 192.85C1163.69 187.878 1176.28 185.116 1189.49 185.116C1229.63 185.116 1263.84 210.529 1276.9 246.174C1280.15 255.054 1282.1 264.549 1282.5 274.473C1282.57 275.721 1282.59 276.989 1282.59 278.279Z" fill="url(#paint1_radial_0_1)"/>
<path d="M1106.17 319.837C1105.54 318.568 1104.93 317.258 1104.35 315.949C1100.12 306.393 1097.46 296.019 1096.67 285.113C1096.67 285.051 1096.67 285.01 1096.65 284.949C1098.53 284.704 1101.1 285.563 1102.98 290.863C1105.42 297.758 1116.74 314.557 1106.17 319.837Z" fill="#F79C41"/>
<path d="M1179.29 303.999C1179.17 304.756 1178.9 305.472 1178.51 306.127C1175.55 311.447 1165.22 314.066 1153.71 312.082C1143.69 310.342 1135.7 305.595 1133.12 300.439C1132.37 298.925 1132.08 297.39 1132.35 295.855C1133.51 289.144 1144.78 287.527 1157.74 289.799C1170.7 292.029 1180.46 297.288 1179.29 303.999Z" fill="#F79C41"/>
<path d="M1151.71 259.638L1151.69 259.658C1149.11 263.546 1141.08 259.986 1131.73 253.868C1124.1 248.875 1118.67 243.903 1118.3 240.117C1118.22 239.258 1118.4 238.439 1118.87 237.703C1121.45 233.774 1131.67 233.508 1141.03 239.646C1150.4 245.785 1154.28 255.709 1151.71 259.638Z" fill="#F79C41"/>
<path d="M1254.84 317.013C1247.3 323.315 1238.26 324.932 1234.68 320.614C1234.5 320.389 1234.33 320.164 1234.19 319.919C1231.45 315.437 1234.72 307.396 1241.88 301.441C1249.16 295.364 1257.8 293.645 1261.63 297.39C1261.77 297.533 1261.91 297.676 1262.04 297.82C1265.62 302.137 1262.41 310.731 1254.84 317.013Z" fill="#F79C41"/>
<path d="M1200.41 265.347C1192.78 271.383 1185.04 274.718 1180.6 269.112C1180.17 268.58 1179.82 268.007 1179.51 267.393C1176.69 261.704 1179.47 253.458 1186.38 247.995C1194.01 241.959 1204.42 239.115 1211.51 248.097C1211.55 248.159 1211.62 248.22 1211.64 248.281C1215.81 253.827 1207.98 259.372 1200.41 265.347Z" fill="#F79C41"/>
<path d="M1169.95 349.65C1168.84 350.714 1166.65 351.307 1163.22 351.143C1150.62 350.591 1136.94 335.245 1140.77 330.313C1140.83 330.231 1140.89 330.17 1140.95 330.109C1144.92 325.627 1154.86 333.689 1159.93 336.349C1168.29 340.728 1172.87 346.846 1169.95 349.65Z" fill="#F79C41"/>
<path d="M1219.34 338.334C1219.37 341.24 1215.42 344.309 1209.2 344.575C1197.84 345.066 1191.35 342.877 1189.82 338.825C1189.66 338.396 1189.55 337.945 1189.49 337.454C1188.94 332.523 1199.35 333.362 1204.83 333.076C1215.11 332.523 1219.32 335.347 1219.34 338.334Z" fill="#F79C41"/>
<path d="M1253.8 272.959C1252.55 274.821 1250.14 276.089 1247.01 276.089C1237.15 276.089 1224.01 268.968 1225.66 262.38C1225.85 261.623 1226.13 260.968 1226.46 260.436C1229 256.343 1235.4 258.328 1241.55 259.638C1253.86 262.257 1256.5 268.968 1253.8 272.959Z" fill="#F79C41"/>
<path d="M1221.8 224.566C1221.68 224.28 1221.61 223.952 1221.57 223.604C1221.33 220.801 1224.09 216.709 1229.47 215.235C1232.96 214.274 1237.69 214.396 1240.61 216.197C1241.9 216.995 1242.82 218.1 1243.17 219.614C1243.98 223.379 1223.54 228.924 1221.8 224.566Z" fill="#F79C41"/>
<path d="M1165.61 215.849C1164.92 216.259 1164.1 216.136 1163.22 215.256C1157.19 209.22 1156.66 199.357 1159.93 197.72C1161.22 197.065 1162.34 196.861 1163.3 196.963C1169.84 197.7 1169.13 213.721 1165.61 215.849Z" fill="#F79C41"/>
<path d="M1268.89 250.328C1268.46 250.532 1267.95 250.573 1267.39 250.43C1265.1 249.837 1262.12 246.317 1261.22 241.017C1260.71 237.907 1262.26 234.92 1264.29 233.979C1266.54 232.915 1269.38 234.388 1270.52 241.017C1271.2 244.782 1271.09 249.223 1268.89 250.328Z" fill="#F79C41"/>
<path d="M1257.83 341.547C1250.77 349.179 1242.45 355.625 1233.21 360.535C1232.16 360.024 1231.22 359.267 1230.86 358.182C1230.53 357.221 1230.67 355.993 1231.67 354.438C1235.5 348.401 1239.34 339.091 1248.09 338.539C1250.65 338.375 1252.67 338.682 1254.29 339.255C1255.84 339.828 1256.99 340.646 1257.83 341.547Z" fill="#F79C41"/>
<path d="M1214.07 368.147C1206.24 370.296 1198 371.421 1189.49 371.421C1185.59 371.421 1181.74 371.176 1177.98 370.705C1177.98 369.6 1178.19 368.413 1178.86 367.411C1179.51 366.449 1180.6 365.671 1182.38 365.385C1188.94 364.28 1192.23 359.901 1201.54 360.454C1206.36 360.74 1209.74 363.093 1211.84 365.283C1212.88 366.388 1213.6 367.411 1214.07 368.147Z" fill="#F79C41"/>
<path d="M1202.17 198.395C1201.7 200.728 1197.75 201.567 1195.85 200.687C1195.44 200.503 1195.14 200.237 1194.97 199.909C1193.87 197.72 1201.09 193.628 1202.09 197.168C1202.21 197.618 1202.23 198.027 1202.17 198.395Z" fill="#F79C41"/>
<path d="M1173.63 321.556C1171.17 320.328 1169.25 319.366 1169.8 324.297C1170.35 329.229 1174.18 330.334 1177.47 330.334C1180.74 330.334 1175.81 322.66 1173.63 321.556Z" fill="#EF903A"/>
<path d="M1128.17 318.282C1125.99 317.729 1125.99 321.576 1124.35 325.402C1122.71 329.229 1124.9 331.971 1128.17 331.971C1131.47 331.971 1132.55 319.366 1128.17 318.282Z" fill="#EF903A"/>
<path d="M1118.32 268.948C1116.21 267.986 1113.94 266.759 1113.39 268.948C1112.84 271.137 1117.77 277.174 1120.51 277.174C1123.25 277.174 1124.33 271.69 1118.32 268.948Z" fill="#EF903A"/>
<path d="M1282.59 278.279C1282.59 283.721 1282.12 289.062 1281.22 294.239C1280.42 293.932 1279.6 293.379 1278.74 292.52C1273.26 287.036 1277.41 279.261 1278.74 276.621C1280.21 273.675 1281.69 273.941 1282.5 274.452C1282.57 275.721 1282.59 276.989 1282.59 278.279Z" fill="#EF903A"/>
<path d="M1226.19 284.294C1223.02 283.906 1221.27 286.484 1226.19 288.673C1231.12 290.883 1230.57 284.847 1226.19 284.294Z" fill="#EF903A"/>
<path d="M1108.46 259.638C1106.99 260.374 1106.83 263.464 1110.65 262.932C1114.47 262.38 1111.73 258.001 1108.46 259.638Z" fill="#EF903A"/>
<path d="M1186.22 221.292C1184.59 221.845 1182.4 223.482 1186.22 224.034C1190.04 224.566 1187.86 220.74 1186.22 221.292Z" fill="#EF903A"/>
<path d="M1195.52 221.292C1193.52 220.126 1193.34 225.671 1194.97 227.86C1196.61 230.05 1202.09 225.119 1195.52 221.292Z" fill="#EF903A"/>
<path d="M1213.05 351.164C1211.86 351.43 1211.41 353.353 1214.68 354.458C1217.97 355.543 1217.97 350.059 1213.05 351.164Z" fill="#EF903A"/>
<path d="M1165.41 360.474C1163.77 361.027 1162.11 362.111 1165.41 363.216C1168.7 364.3 1167.04 359.922 1165.41 360.474Z" fill="#EF903A"/>
<path d="M1168.15 279.915C1165.37 280.059 1171.44 283.742 1173.07 284.294C1174.71 284.847 1179.64 279.363 1168.15 279.915Z" fill="#EF903A"/>
<path d="M1257.95 265.674C1256.58 266.738 1259.05 272.795 1261.24 272.242C1263.43 271.69 1262.88 261.827 1257.95 265.674Z" fill="#EF903A"/>
<path d="M1213.91 304.081C1213.66 305.022 1213.35 305.943 1213.05 306.762C1211.45 311.038 1202.03 312.716 1199.53 310.752C1199.47 310.711 1199.41 310.649 1199.35 310.588C1197.16 308.399 1199.29 302.894 1200.45 300.173C1202.09 296.346 1210.31 293.605 1213.05 294.689C1215.26 295.61 1214.97 300.091 1213.91 304.081Z" fill="#F79C41"/>
<path d="M1118.3 240.138C1118.22 239.278 1118.4 238.46 1118.87 237.723C1121.45 233.794 1131.67 233.528 1141.03 239.667C1150.4 245.806 1154.28 255.73 1151.71 259.658L1151.69 259.679C1151.83 257.285 1150.83 253.929 1147.33 249.243C1138.21 237.068 1121.59 232.874 1118.3 240.138Z" fill="#E27C37"/>
<path d="M1179.29 303.999C1179.17 304.756 1178.9 305.472 1178.51 306.127C1178.29 305.186 1176.26 297.799 1167.04 294.709C1157.47 291.517 1144.59 288.673 1136.93 294.709C1134.47 296.633 1133.43 298.618 1133.12 300.418C1132.37 298.904 1132.08 297.37 1132.35 295.835C1133.51 289.123 1144.78 287.507 1157.74 289.778C1170.7 292.029 1180.46 297.288 1179.29 303.999Z" fill="#E27C37"/>
<path d="M1194.42 246.481C1184.24 250 1179.94 259.986 1179.51 267.393C1176.69 261.704 1179.47 253.458 1186.38 247.995C1194.01 241.959 1204.42 239.115 1211.51 248.097C1211.55 248.159 1211.62 248.22 1211.64 248.281C1208.57 245.908 1202.99 243.534 1194.42 246.481Z" fill="#E27C37"/>
<path d="M1213.91 304.081C1213.8 300.111 1212.82 295.63 1208.67 296.899C1204.42 298.209 1199.59 305.923 1199.55 310.752C1199.49 310.711 1199.43 310.649 1199.37 310.588C1197.18 308.399 1199.31 302.894 1200.47 300.173C1202.11 296.346 1210.33 293.605 1213.07 294.689C1215.26 295.61 1214.97 300.091 1213.91 304.081Z" fill="#E27C37"/>
<path d="M1253.8 272.959C1255.04 265.736 1243.47 263.403 1237.69 261.295C1231.96 259.208 1228.03 259.945 1226.44 260.436C1228.98 256.343 1235.38 258.328 1241.53 259.638C1253.86 262.257 1256.5 268.968 1253.8 272.959Z" fill="#E27C37"/>
<path d="M1221.8 224.566C1221.68 224.28 1221.61 223.952 1221.57 223.604C1225.03 225.896 1233.88 224.034 1238.77 221.824C1242.27 220.228 1241.69 217.896 1240.61 216.218C1241.9 217.016 1242.82 218.121 1243.17 219.635C1243.98 223.379 1223.54 228.924 1221.8 224.566Z" fill="#E27C37"/>
<path d="M1165.61 215.849C1164.92 216.259 1164.1 216.136 1163.22 215.256C1157.19 209.22 1156.66 199.357 1159.93 197.72C1161.22 197.065 1162.34 196.861 1163.3 196.963C1161.97 197.209 1159.93 198.375 1159.93 203.204C1159.93 208.77 1162.61 213.333 1165.61 215.849Z" fill="#E27C37"/>
<path d="M1202.17 198.395C1201.99 197.454 1201.25 196.554 1198.82 197.168C1196.83 197.659 1196.08 199.173 1195.85 200.687C1195.44 200.503 1195.14 200.237 1194.97 199.909C1193.87 197.72 1201.09 193.628 1202.09 197.168C1202.21 197.618 1202.23 198.027 1202.17 198.395Z" fill="#E27C37"/>
<path d="M1169.95 349.65C1169.48 346.703 1166.78 343.839 1162.11 341.281C1156.08 337.986 1151.71 334.713 1147.88 331.971C1145.88 330.538 1143.12 330.15 1140.95 330.109C1144.92 325.627 1154.86 333.689 1159.93 336.349C1168.29 340.728 1172.87 346.846 1169.95 349.65Z" fill="#E27C37"/>
<path d="M1219.34 338.334C1218.47 336.145 1215.81 335.244 1211.39 335.244H1196.06C1190.19 335.244 1189.82 338.641 1189.82 338.805C1189.66 338.375 1189.55 337.925 1189.49 337.434C1188.94 332.503 1199.35 333.342 1204.83 333.055C1215.11 332.523 1219.32 335.347 1219.34 338.334Z" fill="#E27C37"/>
<path d="M1211.84 365.303C1212.88 366.367 1213.6 367.411 1214.07 368.147C1206.24 370.296 1198 371.421 1189.49 371.421C1185.59 371.421 1181.74 371.176 1177.98 370.705C1177.98 369.6 1178.19 368.413 1178.86 367.411C1197.06 371.708 1207.55 367.718 1211.84 365.303Z" fill="#E27C37"/>
<path d="M1257.83 341.547C1250.77 349.179 1242.45 355.625 1233.21 360.535C1232.16 360.024 1231.22 359.267 1230.86 358.182C1246.13 352.453 1252.73 342.079 1254.29 339.276C1255.84 339.828 1256.99 340.646 1257.83 341.547Z" fill="#E27C37"/>
<path d="M1261.63 297.39C1260.4 296.96 1251.67 294.525 1241.51 306.209C1236.38 312.123 1234.6 316.706 1234.19 319.919C1231.45 315.437 1234.72 307.396 1241.88 301.441C1249.16 295.385 1257.8 293.646 1261.63 297.39Z" fill="#E27C37"/>
<path d="M1267.39 250.409C1265.1 249.816 1262.12 246.297 1261.22 240.997C1260.71 237.887 1262.26 234.899 1264.29 233.958C1263.41 235.124 1262.59 236.905 1262.85 239.36C1263.33 243.33 1264.82 247.299 1267.39 250.409Z" fill="#E27C37"/>
<path d="M1106.17 319.837C1105.54 318.568 1104.93 317.258 1104.35 315.949C1106.97 313.575 1109.55 309.237 1106.28 302.383C1102.23 293.891 1100.26 286.586 1096.67 285.113C1096.67 285.051 1096.67 285.01 1096.65 284.949C1098.53 284.704 1101.1 285.563 1102.98 290.863C1105.42 297.758 1116.74 314.557 1106.17 319.837Z" fill="#E27C37"/>
<path opacity="0.35" d="M1282.59 278.279C1282.59 283.721 1282.12 289.062 1281.22 294.239C1278.09 312.327 1269.75 328.635 1257.8 341.547C1250.75 349.179 1242.43 355.625 1233.19 360.535C1227.18 363.748 1220.78 366.306 1214.07 368.147C1206.24 370.296 1198 371.421 1189.49 371.421C1185.59 371.421 1181.74 371.176 1177.98 370.705C1146.45 366.817 1119.79 347.133 1106.17 319.816C1100.86 309.176 1097.52 297.39 1096.64 284.929C1096.48 282.719 1096.4 280.488 1096.4 278.258C1096.4 264.201 1099.51 250.88 1105.07 238.93C1105.97 319.612 1272.44 339.889 1276.9 246.133C1280.15 255.013 1282.1 264.508 1282.5 274.432C1282.57 275.721 1282.59 276.989 1282.59 278.279Z" fill="url(#paint2_linear_0_1)"/>
<path opacity="0.45" d="M1245.84 352.433C1241.88 355.461 1237.64 358.182 1233.21 360.556C1227.2 363.768 1220.8 366.326 1214.09 368.168C1206.26 370.316 1198.02 371.442 1189.51 371.442C1185.61 371.442 1181.76 371.196 1178 370.725C1146.47 366.838 1119.81 347.153 1106.19 319.837C1100.88 309.197 1097.54 297.41 1096.67 284.949C1096.5 282.739 1096.42 280.509 1096.42 278.279C1096.42 264.221 1099.53 250.901 1105.09 238.951C1110.06 228.27 1117.01 218.694 1125.43 210.693C1099.47 334.631 1194.97 351.798 1245.84 352.433Z" fill="url(#paint3_linear_0_1)"/>
<path d="M1282.59 278.279C1282.59 283.721 1282.12 289.062 1281.22 294.239C1280.73 297.022 1280.13 299.764 1279.42 302.465C1276.19 227.533 1225.48 184.931 1152.3 192.85C1163.69 187.878 1176.28 185.116 1189.49 185.116C1229.63 185.116 1263.84 210.529 1276.9 246.174C1280.15 255.054 1282.1 264.549 1282.5 274.473C1282.57 275.721 1282.59 276.989 1282.59 278.279Z" fill="url(#paint4_linear_0_1)"/>
</g>
<g clip-path="url(#clip1_0_1)">
<path d="M1675.48 157.598C1581.73 166.493 1531.28 278.171 1593.37 354.435C1593.37 354.435 1593.37 354.435 1593.36 354.435C1622.05 389.821 1669.97 407.32 1717.2 395.145C1742.51 388.612 1764.38 374.129 1779.98 355.296C1848.04 273.418 1783.94 147.257 1675.48 157.598Z" fill="url(#paint5_radial_0_1)"/>
<path d="M1772.74 286.094C1768.78 329.041 1732.98 365.776 1685.49 365.776C1626.2 365.776 1584.26 307.97 1601.97 251.902C1608.07 232.471 1620.97 215.431 1638.54 204.229C1642.18 201.922 1646.02 199.851 1650.04 198.058C1695.58 177.835 1749.16 199.864 1767.19 246.662C1772.24 259.825 1773.92 273.237 1772.74 286.094Z" fill="url(#paint6_radial_0_1)"/>
<path d="M1726.76 355.435C1714.46 362.024 1700.41 365.762 1685.48 365.762C1651.47 365.762 1621.98 346.345 1607.5 317.978C1613.63 321.119 1624.95 326.109 1638.11 328.152C1657.19 331.112 1680.29 327.234 1691.15 332.794C1709.26 342.065 1712.2 352.711 1726.76 355.435Z" fill="url(#paint7_linear_0_1)"/>
<path d="M1653.05 315.267C1636.2 316.421 1612.8 308.443 1601.91 304.287C1599.34 296.031 1597.96 287.261 1597.96 278.171C1597.96 274.905 1598.14 271.68 1598.48 268.511C1603.23 274.14 1614.12 285.885 1627.82 293.113C1646.36 302.911 1675.7 313.725 1653.05 315.267Z" fill="url(#paint8_linear_0_1)"/>
<path d="M1760.57 323.218C1757.28 328.708 1753.39 333.809 1749.02 338.437C1737.78 335.365 1725.26 329.806 1715.1 321.202C1697.04 305.9 1694.51 299.047 1652.8 285.649C1623.7 276.295 1608.39 260.936 1601.79 252.5C1603.84 245.773 1606.69 239.379 1610.23 233.444C1618.5 242.381 1636.81 259.894 1660.02 268.122C1691.95 279.464 1697.09 278.421 1725.92 304.704C1738.2 315.921 1750.51 321.036 1760.57 323.218Z" fill="url(#paint9_linear_0_1)"/>
<path d="M1773.02 278.171C1773.02 287.998 1771.41 297.435 1768.42 306.247C1759.96 306.066 1746.87 302.578 1732.08 287.192C1706.33 260.394 1668.23 255.238 1667.72 246.482C1667.2 237.725 1706.85 244.939 1731.05 258.337C1748.45 267.983 1761.34 274.947 1772.95 274.641C1772.99 275.808 1773.02 276.99 1773.02 278.171Z" fill="url(#paint10_linear_0_1)"/>
<path d="M1649.7 229.483C1639.22 224.591 1627.05 223.812 1626.54 227.94C1626.02 232.068 1633.75 245.453 1647.65 242.882C1661.54 240.297 1657.43 233.083 1649.7 229.483Z" fill="url(#paint11_linear_0_1)"/>
<path d="M1767.19 246.662C1754.19 238.754 1732.01 233.333 1697.59 225.355C1668.63 218.642 1655.73 206.689 1650.04 198.058C1657.41 194.791 1665.31 192.498 1673.59 191.372C1679.92 197.39 1692.99 205.633 1719.73 212.471C1734.91 216.349 1746.7 221.144 1755.73 225.897C1760.44 232.221 1764.3 239.199 1767.19 246.662Z" fill="url(#paint12_linear_0_1)"/>
<path d="M1725.38 334.601C1720.87 332.113 1705.3 323.259 1715.09 341.3C1718.94 348.389 1735.69 340.272 1725.38 334.601Z" fill="url(#paint13_linear_0_1)"/>
<path d="M1704.27 325.316C1702.16 325.469 1703.24 329.959 1705.3 330.473C1707.37 330.987 1711.49 324.802 1704.27 325.316Z" fill="url(#paint14_linear_0_1)"/>
<path opacity="0.45" d="M1768.41 306.289C1766.39 312.251 1763.76 317.908 1760.58 323.218C1757.28 328.708 1753.39 333.809 1749.02 338.437C1742.59 345.234 1735.08 350.988 1726.77 355.435C1714.48 362.024 1700.42 365.762 1685.49 365.762C1651.48 365.762 1622 346.345 1607.51 317.978C1605.27 313.613 1603.4 309.041 1601.93 304.287C1599.36 296.031 1597.97 287.261 1597.97 278.171C1597.97 274.905 1598.15 271.68 1598.5 268.511C1599.09 263.007 1600.21 257.642 1601.79 252.486C1601.84 252.291 1601.91 252.083 1601.97 251.888C1614.69 238.226 1638.7 246.065 1650.75 263.994C1668.81 290.93 1712.01 371.183 1768.41 306.289Z" fill="url(#paint15_linear_0_1)"/>
<path opacity="0.55" d="M1768.8 305.107C1767.21 310.264 1764.28 317.046 1760.58 323.218C1721.12 388.987 1622.77 375.436 1601.5 302.87C1612.43 317.797 1627.11 329.097 1646.62 334.601C1716.17 354.171 1751.81 327.79 1768.8 305.107Z" fill="url(#paint16_linear_0_1)"/>
<path d="M1767.19 246.662C1772.26 259.811 1773.92 273.237 1772.74 286.094C1770.07 263.424 1758.85 226.564 1715.6 209.385C1683.91 196.793 1657.37 198.85 1638.52 204.229C1642.16 201.922 1646.01 199.851 1650.02 198.058C1695.58 177.835 1749.16 199.878 1767.19 246.662Z" fill="url(#paint17_linear_0_1)"/>
</g>
<g clip-path="url(#clip2_0_1)">
<path d="M1433.47 157.599C1339.73 166.49 1289.28 278.171 1351.37 354.439C1380.06 389.82 1427.97 407.321 1475.21 395.144C1500.51 388.62 1522.39 374.142 1537.98 355.293C1606.04 273.422 1541.92 147.246 1433.47 157.599Z" fill="url(#paint18_radial_0_1)"/>
<path d="M1391.54 350.872C1341 313.947 1342.57 237.482 1395.15 202.791C1430.83 179.16 1479.19 183.86 1509.66 215.576C1523.68 230.153 1532.78 249.396 1534.52 270.628C1540.97 347.734 1453.47 396.311 1391.54 350.872Z" fill="url(#paint19_radial_0_1)"/>
<path d="M1530.79 251.302C1516.49 251.253 1489.28 248.755 1457.61 233.784C1422.6 217.236 1393.62 214.475 1381.23 214.146C1385.48 209.923 1390.14 206.11 1395.17 202.807C1403.41 203.991 1418.96 207.425 1447.33 216.792C1480.96 227.901 1500.3 221.426 1509.69 215.593C1519.27 225.551 1526.59 237.728 1530.79 251.302Z" fill="url(#paint20_linear_0_1)"/>
<path d="M1501.84 208.345C1494 211.468 1478.56 214.163 1451.95 206.472C1428.65 199.734 1414.84 197.121 1407.1 196.152C1411.73 194.015 1416.56 192.274 1421.57 190.942C1428.37 192.767 1437.4 195.544 1449.37 199.784C1473.13 208.198 1488.33 207.064 1496.93 204.599C1498.63 205.782 1500.27 207.031 1501.84 208.345Z" fill="url(#paint21_linear_0_1)"/>
<path d="M1488.25 199.11C1479.25 199.997 1461.98 199.833 1450.4 188.1C1464.06 188.938 1476.9 192.832 1488.25 199.11Z" fill="url(#paint22_linear_0_1)"/>
<path d="M1534.85 278.089C1534.85 279.289 1534.82 280.488 1534.78 281.688C1522.75 283.068 1498.02 281.737 1458.14 261.08C1407.69 234.968 1382.23 233.489 1365.3 235.51C1366.27 233.702 1367.29 231.928 1368.39 230.202C1379.65 228.805 1404.84 229.2 1446.82 247.671C1498.71 270.497 1515.24 275.443 1534.55 270.595C1534.73 273.077 1534.85 275.575 1534.85 278.089Z" fill="url(#paint23_linear_0_1)"/>
<path d="M1429.29 261.606C1397.71 247.03 1368.68 251.861 1357.71 254.606C1355.97 261.047 1354.94 267.769 1354.69 274.704C1415.38 263.71 1459.83 297.743 1444.74 300.258C1429.29 302.838 1422.6 304.892 1398.4 312.632C1380.73 318.285 1366.61 312.928 1360.31 309.625C1362.74 316.165 1365.91 322.344 1369.73 328.063C1401.06 339.78 1426.1 327.389 1458.66 317.266C1483.96 309.395 1508.59 317.661 1522.27 324.103C1526.87 316.362 1530.33 307.866 1532.47 298.861C1488.59 306.93 1466.43 278.746 1429.29 261.606Z" fill="url(#paint24_linear_0_1)"/>
<path d="M1410.24 298.187C1400.98 298.696 1395.82 301.276 1381.41 303.347C1374.3 304.366 1365.07 302.755 1357.53 300.849C1356.09 295.311 1355.17 289.543 1354.81 283.643C1397.63 276.708 1418.96 297.694 1410.24 298.187Z" fill="url(#paint25_linear_0_1)"/>
<path d="M1509.64 340.635C1507.54 342.82 1505.34 344.891 1503.03 346.846C1492.04 343.412 1479.6 341.259 1466.35 341.982C1435.79 343.658 1417.5 354.192 1391.52 350.873C1389.98 349.739 1388.47 348.572 1387.01 347.339C1397.61 348.769 1416.66 348.079 1449.86 338.893C1473.18 332.451 1493.39 334.932 1509.64 340.635Z" fill="url(#paint26_linear_0_1)"/>
<path d="M1488.94 356.69C1475.89 364.052 1460.8 368.259 1444.74 368.259C1438.97 368.259 1433.34 367.717 1427.89 366.682C1447.23 345.236 1475.43 351.76 1488.94 356.69Z" fill="url(#paint27_linear_0_1)"/>
<path opacity="0.55" d="M1525.98 317.118C1524.83 319.501 1523.58 321.818 1522.25 324.086C1518.69 330.084 1514.45 335.639 1509.64 340.635C1507.54 342.82 1505.34 344.891 1503.03 346.846C1498.66 350.56 1493.95 353.863 1488.92 356.69C1475.87 364.052 1460.78 368.259 1444.72 368.259C1438.96 368.259 1433.33 367.717 1427.87 366.682C1414.48 364.151 1402.13 358.646 1391.54 350.873C1389.99 349.739 1388.48 348.572 1387.02 347.339C1380.37 341.785 1374.53 335.294 1369.72 328.047C1365.91 322.328 1362.74 316.149 1360.29 309.608C1359.22 306.749 1358.3 303.824 1357.52 300.833C1356.07 295.295 1355.15 289.527 1354.79 283.627C1354.72 282.608 1354.68 281.589 1354.66 280.57C1354.63 279.749 1354.63 278.911 1354.63 278.089C1354.63 276.955 1354.64 275.821 1354.69 274.687C1354.95 267.769 1355.99 261.031 1357.71 254.589C1359.52 247.884 1362.06 241.508 1365.28 235.51C1366.25 233.702 1367.27 231.927 1368.37 230.202C1369.42 228.542 1370.5 226.915 1371.65 225.321C1384.36 231.172 1397.4 243.661 1406.89 268.541C1420.52 304.267 1444.97 325.713 1472.67 329.871C1489.79 332.467 1508.17 328.441 1525.98 317.118Z" fill="url(#paint28_linear_0_1)"/>
<path opacity="0.5" d="M1534.57 285.188C1534.21 289.839 1533.49 294.407 1532.43 298.844C1530.92 305.221 1528.76 311.35 1525.98 317.118C1524.83 319.501 1523.58 321.818 1522.25 324.086C1518.69 330.084 1514.45 335.639 1509.64 340.635C1507.54 342.82 1505.34 344.891 1503.03 346.846C1498.66 350.56 1493.95 353.863 1488.92 356.69C1475.87 364.052 1460.78 368.259 1444.72 368.259C1438.96 368.259 1433.33 367.717 1427.87 366.682C1414.48 364.151 1402.13 358.646 1391.54 350.873C1389.99 349.739 1388.48 348.572 1387.02 347.339C1380.37 341.785 1374.53 335.294 1369.72 328.047C1365.91 322.328 1362.74 316.149 1360.29 309.608C1359.22 306.749 1358.3 303.824 1357.52 300.833C1356.07 295.295 1355.15 289.527 1354.79 283.627C1354.72 282.608 1354.68 281.589 1354.66 280.57C1363.38 300.06 1379.14 318.877 1407.14 329.624C1431.06 338.794 1453.28 336.953 1472.65 329.887C1500.09 319.928 1521.81 299.551 1534.57 285.188Z" fill="url(#paint29_linear_0_1)" stroke="url(#paint30_radial_0_1)" stroke-miterlimit="10"/>
<path d="M1534.58 284.991C1534.55 283.085 1533.4 238.6 1480.01 211.484C1416.49 179.226 1375.77 220.243 1374.85 221.18C1408.91 179.258 1472.14 176.53 1509.66 215.593C1527.52 234.146 1536.52 259.24 1534.58 284.991Z" fill="url(#paint31_linear_0_1)"/>
</g>
<g clip-path="url(#clip3_0_1)">
<path d="M695.474 162.599C601.728 171.496 551.282 283.168 613.369 359.438C642.051 394.819 689.972 412.325 737.215 400.141C762.53 393.607 784.396 379.142 799.979 360.301C868.041 278.422 803.942 152.244 695.474 162.599Z" fill="url(#paint32_radial_0_1)"/>
<path d="M800.472 282.778C800.472 288.243 800 293.606 799.096 298.804C798.603 301.598 798.008 304.352 797.289 307.064C793.306 321.94 785.751 335.336 775.608 346.308C771.933 350.294 767.909 353.952 763.577 357.239C759.594 360.28 755.344 363.013 750.888 365.396C744.852 368.622 738.426 371.191 731.692 373.04C723.828 375.197 715.554 376.327 707.013 376.327C703.091 376.327 699.231 376.081 695.454 375.608C663.794 371.704 637.021 351.938 623.347 324.508C618.009 313.824 614.662 301.989 613.78 289.476C613.615 287.257 613.533 285.017 613.533 282.778C613.533 268.662 616.654 255.286 622.239 243.287C627.228 232.561 634.208 222.945 642.667 214.912C650.49 207.474 659.606 201.371 669.646 196.995C681.082 192.002 693.729 189.228 706.992 189.228C747.295 189.228 781.644 214.747 794.764 250.54C798.029 259.457 799.979 268.991 800.39 278.956C800.451 280.209 800.472 281.483 800.472 282.778Z" fill="url(#paint33_radial_0_1)"/>
<path d="M623.327 324.508C622.69 323.234 622.075 321.919 621.5 320.604C617.25 311.009 614.581 300.592 613.78 289.64C613.78 289.579 613.78 289.537 613.759 289.476C615.648 289.229 618.235 290.092 620.124 295.414C622.567 302.338 633.942 319.207 623.327 324.508Z" fill="#BCBCBC"/>
<path d="M696.747 308.605C696.624 309.365 696.357 310.084 695.967 310.742C692.99 316.084 682.622 318.714 671.063 316.721C661.002 314.974 652.974 310.208 650.388 305.03C649.628 303.509 649.34 301.968 649.607 300.427C650.778 293.688 662.09 292.065 675.107 294.345C688.124 296.585 697.918 301.866 696.747 308.605Z" fill="#BCBCBC"/>
<path d="M669.051 264.059L669.03 264.08C666.443 267.984 658.374 264.409 648.991 258.265C641.333 253.252 635.872 248.259 635.502 244.458C635.42 243.595 635.605 242.773 636.077 242.033C638.664 238.088 648.93 237.821 658.333 243.985C667.737 250.149 671.638 260.114 669.051 264.059Z" fill="#BCBCBC"/>
<path d="M772.611 321.673C765.035 328.001 755.96 329.624 752.367 325.289C752.182 325.063 752.018 324.837 751.874 324.59C749.123 320.091 752.408 312.016 759.594 306.037C766.903 299.934 775.588 298.208 779.427 301.968C779.571 302.112 779.715 302.256 779.838 302.4C783.431 306.735 780.208 315.365 772.611 321.673Z" fill="#BCBCBC"/>
<path d="M717.956 269.792C710.298 275.853 702.517 279.203 698.061 273.573C697.63 273.038 697.281 272.463 696.973 271.847C694.14 266.135 696.932 257.854 703.872 252.368C711.53 246.307 721.98 243.451 729.105 252.471C729.146 252.533 729.207 252.594 729.228 252.656C733.416 258.224 725.553 263.792 717.956 269.792Z" fill="#BCBCBC"/>
<path d="M687.364 354.445C686.256 355.513 684.059 356.109 680.609 355.945C667.962 355.39 654.227 339.98 658.066 335.028C658.128 334.946 658.189 334.884 658.251 334.823C662.234 330.323 672.212 338.418 677.304 341.089C685.701 345.486 690.3 351.63 687.364 354.445Z" fill="#BCBCBC"/>
<path d="M736.968 343.082C736.989 346 733.026 349.082 726.785 349.349C715.369 349.842 708.861 347.644 707.321 343.576C707.157 343.144 707.054 342.692 706.992 342.199C706.438 337.247 716.889 338.09 722.391 337.802C732.718 337.247 736.948 340.083 736.968 343.082Z" fill="#BCBCBC"/>
<path d="M771.564 277.436C770.311 279.305 767.888 280.579 764.747 280.579C754.851 280.579 741.649 273.429 743.312 266.813C743.497 266.053 743.785 265.395 744.113 264.861C746.659 260.752 753.085 262.745 759.265 264.06C771.625 266.69 774.274 273.429 771.564 277.436Z" fill="#BCBCBC"/>
<path d="M739.432 228.842C739.309 228.555 739.247 228.226 739.206 227.877C738.96 225.062 741.731 220.952 747.131 219.473C750.642 218.507 755.385 218.63 758.321 220.439C759.614 221.24 760.538 222.349 760.887 223.87C761.708 227.651 741.177 233.219 739.432 228.842Z" fill="#BCBCBC"/>
<path d="M683.012 220.089C682.314 220.5 681.492 220.377 680.61 219.494C674.553 213.432 674.019 203.529 677.304 201.885C678.597 201.227 679.727 201.022 680.692 201.125C687.262 201.864 686.543 217.953 683.012 220.089Z" fill="#BCBCBC"/>
<path d="M786.716 254.711C786.285 254.916 785.771 254.957 785.217 254.813C782.917 254.218 779.92 250.684 779.017 245.362C778.503 242.239 780.064 239.239 782.096 238.294C784.355 237.225 787.209 238.705 788.358 245.362C789.036 249.143 788.933 253.601 786.716 254.711Z" fill="#BCBCBC"/>
<path d="M775.609 346.308C768.525 353.972 760.169 360.445 750.889 365.376C749.842 364.862 748.897 364.102 748.528 363.013C748.199 362.047 748.343 360.814 749.349 359.253C753.188 353.192 757.048 343.843 765.836 343.288C768.402 343.124 770.435 343.432 772.057 344.007C773.617 344.582 774.767 345.404 775.609 346.308Z" fill="#BCBCBC"/>
<path d="M731.672 373.019C723.808 375.177 715.534 376.307 706.993 376.307C703.071 376.307 699.211 376.06 695.434 375.588C695.434 374.478 695.639 373.286 696.316 372.28C696.973 371.314 698.062 370.533 699.848 370.245C706.438 369.136 709.744 364.739 719.086 365.294C723.931 365.581 727.319 367.944 729.434 370.143C730.481 371.252 731.199 372.28 731.672 373.019Z" fill="#BCBCBC"/>
<path d="M719.722 202.563C719.25 204.905 715.287 205.748 713.378 204.864C712.967 204.679 712.659 204.412 712.495 204.083C711.386 201.885 718.634 197.775 719.64 201.33C719.763 201.782 719.784 202.193 719.722 202.563Z" fill="#BCBCBC"/>
<path d="M691.06 326.234C688.596 325.001 686.666 324.036 687.22 328.987C687.775 333.939 691.614 335.049 694.919 335.049C698.205 335.049 693.256 327.344 691.06 326.234Z" fill="#9B9B9B"/>
<path d="M645.419 322.947C643.222 322.392 643.222 326.255 641.58 330.097C639.937 333.939 642.134 336.692 645.419 336.692C648.725 336.692 649.813 324.036 645.419 322.947Z" fill="#9B9B9B"/>
<path d="M635.522 273.408C633.408 272.443 631.129 271.21 630.574 273.408C630.02 275.607 634.968 281.668 637.719 281.668C640.47 281.668 641.558 276.162 635.522 273.408Z" fill="#9B9B9B"/>
<path d="M800.472 282.778C800.472 288.243 799.999 293.606 799.096 298.804C798.295 298.496 797.474 297.941 796.612 297.078C791.109 291.572 795.277 283.764 796.612 281.113C798.09 278.155 799.568 278.422 800.39 278.935C800.451 280.209 800.472 281.483 800.472 282.778Z" fill="#9B9B9B"/>
<path d="M743.846 288.818C740.664 288.428 738.898 291.017 743.846 293.215C748.794 295.434 748.24 289.373 743.846 288.818Z" fill="#9B9B9B"/>
<path d="M625.626 264.06C624.148 264.799 623.984 267.902 627.823 267.368C631.663 266.813 628.911 262.416 625.626 264.06Z" fill="#9B9B9B"/>
<path d="M703.707 225.555C702.065 226.11 699.868 227.753 703.707 228.308C707.547 228.842 705.35 225 703.707 225.555Z" fill="#9B9B9B"/>
<path d="M713.049 225.555C711.037 224.384 710.853 229.952 712.495 232.15C714.138 234.349 719.64 229.397 713.049 225.555Z" fill="#9B9B9B"/>
<path d="M730.644 355.965C729.453 356.232 729.002 358.164 732.287 359.273C735.592 360.362 735.592 354.856 730.644 355.965Z" fill="#9B9B9B"/>
<path d="M682.807 365.314C681.164 365.869 679.501 366.958 682.807 368.067C686.112 369.156 684.449 364.759 682.807 365.314Z" fill="#9B9B9B"/>
<path d="M685.558 284.421C682.765 284.565 688.863 288.264 690.506 288.818C692.148 289.373 697.096 283.867 685.558 284.421Z" fill="#9B9B9B"/>
<path d="M775.731 270.121C774.356 271.189 776.84 277.271 779.037 276.716C781.234 276.162 780.679 266.258 775.731 270.121Z" fill="#9B9B9B"/>
<path d="M731.507 308.687C731.261 309.632 730.953 310.557 730.645 311.379C729.043 315.673 719.578 317.358 717.073 315.385C717.012 315.344 716.95 315.283 716.889 315.221C714.692 313.023 716.827 307.495 717.997 304.763C719.64 300.921 727.893 298.167 730.645 299.256C732.862 300.181 732.575 304.681 731.507 308.687Z" fill="#BCBCBC"/>
<path d="M635.502 244.478C635.42 243.615 635.605 242.794 636.077 242.054C638.664 238.109 648.93 237.842 658.333 244.006C667.737 250.17 671.638 260.135 669.051 264.08L669.03 264.101C669.174 261.697 668.168 258.327 664.657 253.622C655.5 241.396 638.808 237.184 635.502 244.478Z" fill="#9B9B9B"/>
<path d="M696.747 308.605C696.624 309.365 696.357 310.084 695.967 310.742C695.741 309.797 693.709 302.379 684.449 299.277C674.84 296.071 661.906 293.215 654.206 299.277C651.743 301.208 650.695 303.201 650.388 305.009C649.628 303.489 649.34 301.948 649.607 300.407C650.778 293.667 662.09 292.044 675.107 294.325C688.124 296.585 697.918 301.866 696.747 308.605Z" fill="#9B9B9B"/>
<path d="M711.94 250.848C701.716 254.382 697.404 264.409 696.973 271.847C694.14 266.135 696.932 257.854 703.872 252.368C711.53 246.307 721.98 243.451 729.105 252.471C729.146 252.533 729.207 252.594 729.228 252.656C726.148 250.273 720.543 247.889 711.94 250.848Z" fill="#9B9B9B"/>
<path d="M731.507 308.687C731.404 304.701 730.419 300.201 726.251 301.475C721.98 302.79 717.135 310.536 717.094 315.385C717.032 315.344 716.971 315.283 716.909 315.221C714.712 313.023 716.847 307.495 718.018 304.763C719.66 300.921 727.914 298.167 730.665 299.256C732.862 300.181 732.575 304.681 731.507 308.687Z" fill="#9B9B9B"/>
<path d="M771.564 277.436C772.816 270.183 761.195 267.84 755.385 265.724C749.636 263.628 745.694 264.368 744.093 264.861C746.639 260.752 753.065 262.745 759.245 264.06C771.625 266.69 774.274 273.429 771.564 277.436Z" fill="#9B9B9B"/>
<path d="M739.432 228.842C739.309 228.555 739.248 228.226 739.207 227.877C742.676 230.178 751.566 228.308 756.473 226.089C759.984 224.486 759.409 222.144 758.321 220.459C759.615 221.261 760.539 222.37 760.888 223.89C761.709 227.651 741.178 233.219 739.432 228.842Z" fill="#9B9B9B"/>
<path d="M683.012 220.089C682.314 220.5 681.492 220.377 680.61 219.494C674.553 213.432 674.019 203.529 677.304 201.885C678.597 201.227 679.727 201.022 680.692 201.125C679.357 201.371 677.304 202.542 677.304 207.391C677.304 212.98 679.994 217.562 683.012 220.089Z" fill="#9B9B9B"/>
<path d="M719.722 202.563C719.537 201.618 718.798 200.714 716.355 201.33C714.363 201.823 713.604 203.344 713.378 204.864C712.967 204.679 712.659 204.412 712.495 204.083C711.386 201.885 718.634 197.775 719.64 201.33C719.763 201.782 719.784 202.193 719.722 202.563Z" fill="#9B9B9B"/>
<path d="M687.364 354.445C686.892 351.486 684.182 348.61 679.501 346.041C673.444 342.733 669.05 339.446 665.211 336.692C663.199 335.254 660.427 334.864 658.25 334.823C662.234 330.323 672.212 338.418 677.304 341.089C685.701 345.486 690.3 351.63 687.364 354.445Z" fill="#9B9B9B"/>
<path d="M736.968 343.082C736.085 340.884 733.416 339.98 728.982 339.98H713.583C707.691 339.98 707.321 343.391 707.321 343.555C707.157 343.124 707.054 342.672 706.992 342.178C706.438 337.227 716.889 338.069 722.391 337.781C732.718 337.247 736.948 340.083 736.968 343.082Z" fill="#9B9B9B"/>
<path d="M729.434 370.163C730.481 371.232 731.199 372.28 731.672 373.019C723.808 375.177 715.534 376.307 706.993 376.307C703.071 376.307 699.211 376.06 695.434 375.588C695.434 374.478 695.639 373.286 696.316 372.28C714.589 376.594 725.122 372.588 729.434 370.163Z" fill="#9B9B9B"/>
<path d="M775.608 346.308C768.525 353.972 760.169 360.445 750.888 365.376C749.841 364.862 748.897 364.102 748.527 363.013C763.864 357.26 770.496 346.843 772.056 344.028C773.617 344.582 774.767 345.404 775.608 346.308Z" fill="#9B9B9B"/>
<path d="M779.427 301.968C778.195 301.537 769.428 299.092 759.224 310.824C754.071 316.762 752.285 321.365 751.874 324.59C749.123 320.091 752.408 312.016 759.594 306.037C766.903 299.955 775.588 298.208 779.427 301.968Z" fill="#9B9B9B"/>
<path d="M785.217 254.793C782.917 254.197 779.92 250.663 779.017 245.341C778.503 242.218 780.064 239.218 782.096 238.273C781.213 239.444 780.392 241.232 780.659 243.698C781.131 247.684 782.63 251.67 785.217 254.793Z" fill="#9B9B9B"/>
<path d="M623.327 324.508C622.69 323.234 622.075 321.919 621.5 320.604C624.128 318.221 626.715 313.865 623.43 306.982C619.364 298.455 617.393 291.12 613.78 289.64C613.78 289.579 613.78 289.537 613.759 289.476C615.648 289.229 618.235 290.092 620.124 295.414C622.567 302.338 633.942 319.207 623.327 324.508Z" fill="#9B9B9B"/>
<path opacity="0.45" d="M763.577 357.239C759.594 360.28 755.344 363.013 750.888 365.396C744.852 368.622 738.426 371.191 731.692 373.04C723.828 375.197 715.554 376.327 707.013 376.327C703.091 376.327 699.231 376.081 695.454 375.608C663.794 371.704 637.021 351.938 623.347 324.508C618.009 313.824 614.662 301.989 613.78 289.476C613.615 287.257 613.533 285.017 613.533 282.778C613.533 268.662 616.654 255.286 622.239 243.287C627.228 232.561 634.208 222.945 642.667 214.912C616.592 339.364 712.495 356.602 763.577 357.239Z" fill="url(#paint34_linear_0_1)"/>
<path d="M800.472 282.778C800.472 288.243 800 293.606 799.096 298.804C798.603 301.599 798.008 304.352 797.289 307.064C794.045 231.822 743.127 189.043 669.646 196.995C681.082 192.002 693.729 189.228 706.992 189.228C747.295 189.228 781.644 214.747 794.764 250.54C798.028 259.457 799.979 268.991 800.39 278.956C800.451 280.209 800.472 281.483 800.472 282.778Z" fill="url(#paint35_linear_0_1)"/>
</g>
<g clip-path="url(#clip4_0_1)">
<circle cx="429" cy="283" r="143" fill="url(#paint36_radial_0_1)"/>
<path d="M528.583 283.515C528.335 371.851 420.78 415.132 359.328 353.68C296.542 291.504 340.719 183.853 429.17 183.853C486.827 183.853 528.717 231.387 528.583 283.515Z" fill="url(#paint37_radial_0_1)"/>
<g opacity="0.5">
<path d="M527.973 273.314C526.123 273.162 523.95 273.162 521.528 273.486C514.111 274.458 502.748 278.672 490.736 293.258C488.829 295.584 487.056 297.777 485.321 299.912C466.082 323.726 457.293 334.613 399.902 339.819C381.77 341.458 369.224 347.522 360.529 354.881C360.11 354.481 359.709 354.1 359.309 353.68C368.213 346.092 381.121 339.819 399.75 338.141C456.416 332.993 464.5 323.002 484.005 298.844C485.721 296.709 487.494 294.516 489.42 292.19C501.832 277.108 513.673 272.78 521.414 271.789C523.778 271.484 525.914 271.465 527.763 271.598C527.858 272.17 527.935 272.742 527.973 273.314Z" fill="#FFED9F"/>
<path d="M527.458 297.243C527.382 297.796 527.306 298.349 527.211 298.883C518.383 298.749 510.508 302.353 503.701 309.655C499.736 313.907 496.342 317.892 493.348 321.4C478.61 338.675 469.706 349.104 425.948 356.159C408.997 358.885 396.528 364.834 388.806 373.834C388.272 373.605 387.738 373.357 387.204 373.109C395.174 363.595 408.101 357.322 425.681 354.5C468.829 347.541 477.084 337.874 492.071 320.313C495.083 316.786 498.496 312.782 502.481 308.511C510.68 299.683 519.622 297.09 527.458 297.243Z" fill="#FFED9F"/>
<path d="M521.033 320.866C520.785 321.457 520.537 322.068 520.27 322.659C513.158 323.86 507.057 327.597 502.042 333.87C488.391 350.935 479.334 359.743 455.367 366.874C439.16 371.679 432.316 377.704 429.475 382.414H429.17C428.617 382.414 428.083 382.414 427.53 382.395C431.248 375.302 440.438 369.525 454.871 365.235C478.381 358.256 487.285 349.581 500.708 332.802C507 324.966 514.34 321.801 521.033 320.866Z" fill="#FFED9F"/>
<path d="M424.689 294.974C418.454 305.823 402.838 309.941 379.73 314.994C359.729 319.36 349.566 328.188 344.513 334.995C344.189 334.461 343.865 333.927 343.541 333.393C343.999 332.783 344.513 332.173 345.066 331.525C350.291 325.5 360.491 317.473 379.367 313.335C402.038 308.378 417.329 304.355 423.221 294.135C426.977 287.576 426.824 278.615 422.744 265.916C419.293 255.201 414.107 244.447 409.111 234.056C401.618 218.478 394.373 203.454 393.915 190.317C394.487 190.107 395.04 189.897 395.612 189.688C395.86 202.615 403.105 217.678 410.637 233.312C415.67 243.761 420.875 254.553 424.365 265.402C428.597 278.577 428.712 287.976 424.689 294.974Z" fill="#FFED9F"/>
<path d="M402.438 278.348C398.491 285.784 386.231 288.834 364.991 291.866C349.547 294.078 339.041 299.226 332.158 304.259C332.025 303.63 331.891 302.982 331.758 302.353C338.832 297.357 349.375 292.381 364.743 290.188C384.954 287.309 397.347 284.316 400.932 277.547C403.258 273.143 402.171 266.793 397.385 256.993C396.337 254.858 395.307 252.779 394.316 250.758C385.297 232.607 377.937 217.792 380.397 196.647C381.007 196.304 381.598 195.961 382.227 195.637C379.367 216.82 386.441 231.081 395.841 249.996C396.851 252.017 397.881 254.095 398.93 256.23C403.963 266.603 405.05 273.409 402.438 278.348Z" fill="#FFED9F"/>
<path d="M357.403 264.029C355.172 264.887 352.655 265.859 349.967 266.984C339.766 271.312 333.493 275.984 329.966 279.282C329.985 278.481 330.042 277.68 330.099 276.88C333.894 273.6 339.995 269.386 349.318 265.44C352.026 264.296 354.562 263.323 356.812 262.465C370.158 257.355 375.688 255.239 371.951 234.208C369.472 220.252 370.006 209.555 371.035 202.672C371.684 202.195 372.332 201.738 372.999 201.28C371.855 207.915 370.978 219.108 373.609 233.922C377.594 256.307 370.845 258.9 357.403 264.029Z" fill="#FFED9F"/>
<path d="M356.488 238.155C352.236 244.714 343.523 247.021 336.373 247.765C336.601 247.155 336.849 246.545 337.097 245.934C343.713 245.134 351.378 242.922 355.077 237.221C358.185 232.435 358.07 225.8 354.715 217.449C355.134 216.972 355.535 216.515 355.973 216.057C359.844 225.323 360.015 232.74 356.488 238.155Z" fill="#FFED9F"/>
<path d="M526.238 262.179C511.137 259.167 504.788 249.462 498.61 240.043C497.295 238.022 495.922 235.943 494.511 233.999C493.443 232.531 492.433 231.043 491.479 229.613C484.405 219.165 477.713 209.288 443.736 203.873C427.377 201.261 416.013 196.018 409.988 188.258C409.397 187.495 408.901 186.751 408.463 186.027C409.054 185.893 409.645 185.779 410.236 185.665C410.579 186.218 410.98 186.771 411.418 187.343C415.403 192.395 424.288 199.069 444.003 202.215C478.705 207.744 485.588 217.906 492.871 228.679C493.824 230.09 494.816 231.558 495.884 233.007C497.333 234.99 498.705 237.088 500.04 239.128C505.894 248.07 511.919 257.26 525.856 260.349C525.971 260.94 526.123 261.55 526.238 262.179Z" fill="#FFED9F"/>
<path d="M519.183 241.168C508.716 238.308 503.015 231.043 497.028 223.417C490.278 214.837 482.652 205.113 466.712 199.888C449.743 194.321 441.563 188.563 437.616 184.216C438.493 184.292 439.389 184.368 440.267 184.483C444.404 188.391 452.278 193.387 467.227 198.287C483.643 203.664 491.46 213.616 498.344 222.387C504.083 229.69 509.192 236.191 518.192 239.128C518.535 239.795 518.859 240.481 519.183 241.168Z" fill="#FFED9F"/>
<path d="M493.195 258.156C489.973 242.007 467.608 218.764 447.207 210.299C436.739 205.971 427.816 205.952 421.39 210.223C417.444 212.854 420.284 220.976 424.613 233.255C426.576 238.823 428.788 245.114 430.638 251.769C432.106 257.05 433.04 262.923 433.955 268.586C436.625 285.174 439.141 300.846 453.918 302.581C454.814 302.696 455.729 302.734 456.645 302.734C465.492 302.734 475.311 297.929 482.861 289.731C491.422 280.445 495.293 268.643 493.195 258.156ZM481.603 288.587C473.614 297.243 463.089 301.952 454.109 300.904C440.59 299.321 438.169 284.258 435.614 268.319C434.699 262.599 433.745 256.688 432.258 251.311C430.39 244.6 428.159 238.27 426.195 232.683C422.572 222.406 419.445 213.54 422.305 211.633C429.799 206.638 439.618 209.002 446.539 211.862C466.159 219.985 488.448 243.093 491.518 258.48C493.52 268.433 489.802 279.701 481.603 288.587Z" fill="#FFED9F"/>
<path d="M475.883 241.797C465.835 229.995 450.2 218.555 437.082 218.555C436.453 218.555 435.862 218.574 435.252 218.631C434.032 218.726 433.116 219.336 432.602 220.347C429.513 226.41 441.544 246.525 441.658 246.716C444.69 251.769 445.262 258.938 445.796 265.878C446.597 276.174 447.359 285.898 456.397 286.718C457.312 286.794 458.227 286.852 459.123 286.852C472.203 286.852 483.586 278.291 486.751 265.649C488.067 260.368 483.91 251.216 475.883 241.797ZM485.111 265.23C481.927 277.909 469.915 286.241 456.53 285.021C448.904 284.335 448.236 275.717 447.455 265.745C446.902 258.614 446.33 251.235 443.069 245.839C438.207 237.774 432.201 224.77 434.07 221.11C434.337 220.614 434.737 220.347 435.366 220.309C448.255 219.222 464.348 230.853 474.586 242.884C482.156 251.769 486.293 260.54 485.111 265.23Z" fill="#FFED9F"/>
<path d="M472.184 261.035C471.364 252.303 461.64 239.433 454.014 239.433C453.289 239.433 452.87 239.795 452.641 240.1C451.726 241.32 452.412 243.742 453.804 248.261C454.719 251.216 455.749 254.572 455.977 257.279C456.073 258.366 456.073 259.453 456.092 260.501C456.13 263.514 456.187 266.355 458.17 267.975C459.219 268.833 460.706 269.253 462.708 269.253C463.966 269.253 465.434 269.081 467.112 268.776C470.792 268.033 472.584 265.306 472.184 261.035ZM466.826 267.079C462.994 267.804 460.515 267.67 459.257 266.641C457.884 265.516 457.846 263.171 457.808 260.444C457.789 259.376 457.77 258.271 457.674 257.127C457.446 254.228 456.378 250.777 455.424 247.727C454.7 245.362 453.594 241.816 453.975 241.111H453.994C460.63 241.111 469.763 253.447 470.487 261.188C470.811 264.563 469.572 266.546 466.826 267.079Z" fill="#FFED9F"/>
</g>
<path opacity="0.65" d="M526.886 301.399C525.532 308.53 523.34 315.661 520.289 322.678C492.547 386.532 408.558 402.91 359.347 353.699C329.279 323.917 323.75 283.686 335.876 249.843C345.944 273.238 362.169 308.321 419.598 326.014C460.42 338.579 507.019 327.692 526.886 301.399Z" fill="url(#paint38_linear_0_1)"/>
<path opacity="0.65" d="M528.583 283.515C528.564 289.426 528.011 295.412 526.867 301.399C525.514 308.53 523.321 315.661 520.27 322.678C492.528 386.532 408.54 402.91 359.328 353.699C353.475 347.903 348.556 341.706 344.514 335.243C483.433 398.43 527.344 279.206 527.344 279.206L528.583 283.515Z" fill="url(#paint39_linear_0_1)"/>
</g>
<g clip-path="url(#clip5_0_1)">
<path d="M2098.05 277.168C2098.05 273.007 2097.83 268.889 2097.4 264.815C2094.19 232.914 2079.02 206.244 2057.42 187.418C2037.48 169.734 2011.57 158.465 1982.79 157.165C1957.1 155.821 1930.52 162.641 1906.95 179.487C1906.89 179.516 1906.83 179.559 1906.79 179.602C1906.77 179.617 1906.76 179.631 1906.67 179.689C1906.64 179.703 1906.63 179.718 1906.63 179.718C1886.62 194.093 1872.62 213.005 1864.59 233.738C1824.79 234.518 1798.33 241.814 1795.78 255.121C1793.05 269.294 1818.06 287.151 1859.2 303.419C1859.26 303.679 1859.32 303.939 1859.38 304.185C1859.39 304.243 1859.4 304.301 1859.42 304.344C1859.65 305.384 1859.91 306.424 1860.17 307.465C1860.2 307.595 1860.23 307.71 1860.27 307.84C1860.54 308.866 1860.82 309.892 1861.11 310.903C1861.14 310.99 1861.16 311.077 1861.19 311.163C1861.81 313.287 1862.48 315.382 1863.22 317.448C1863.23 317.506 1863.26 317.549 1863.27 317.607C1863.59 318.503 1863.91 319.398 1864.26 320.28C1872 340.796 1885.52 359.52 1904.72 373.852C1905.21 374.228 1905.72 374.603 1906.22 374.965C1906.56 375.21 1906.89 375.441 1907.22 375.687C1908.14 376.337 1909.05 376.973 1909.98 377.58C1933.49 393.313 1959.64 399.439 1984.78 397.72C1989.44 397.431 1994.04 396.882 1998.54 396.087C2010.24 394.021 2021.34 390.265 2031.61 385.092C2032.68 384.558 2033.74 383.994 2034.8 383.416C2034.97 383.315 2035.16 383.229 2035.33 383.127C2036.38 382.55 2037.42 381.972 2038.45 381.365C2038.54 381.321 2038.62 381.264 2038.7 381.22C2039.71 380.628 2040.71 380.007 2041.71 379.386C2041.8 379.328 2041.88 379.284 2041.96 379.227C2042.99 378.576 2044.01 377.897 2045.03 377.218C2045.07 377.189 2045.12 377.161 2045.16 377.132C2045.25 377.074 2045.32 377.016 2045.41 376.958C2046.06 376.51 2046.69 376.077 2047.33 375.615C2047.49 375.499 2047.65 375.398 2047.8 375.282C2048.43 374.82 2049.06 374.358 2049.69 373.895C2049.82 373.794 2049.96 373.693 2050.09 373.606C2051.58 372.479 2053.03 371.338 2054.46 370.139C2054.68 369.966 2054.88 369.778 2055.1 369.604C2055.58 369.2 2056.06 368.795 2056.52 368.391C2056.79 368.16 2057.07 367.914 2057.35 367.668C2057.75 367.307 2058.16 366.946 2058.56 366.57C2058.84 366.325 2059.11 366.065 2059.39 365.805C2059.42 365.776 2059.45 365.747 2059.48 365.718C2059.62 365.588 2059.77 365.443 2059.92 365.313C2066.16 359.578 2071.79 353.163 2076.72 346.156C2124.38 346.965 2156.95 339.596 2159.82 324.773C2162.47 310.817 2138.17 293.263 2098.05 277.168ZM1861.22 243.692H1861.2C1861.33 243.273 1861.46 242.854 1861.59 242.435C1861.46 242.854 1861.35 243.273 1861.22 243.692ZM1857.78 259.137C1857.77 259.224 1857.75 259.31 1857.74 259.397C1857.58 260.423 1857.43 261.463 1857.32 262.503C1857.3 262.677 1857.27 262.836 1857.26 263.009C1857.13 264.049 1857.01 265.089 1856.93 266.13C1856.93 266.173 1856.91 266.216 1856.91 266.26C1856.83 267.257 1856.74 268.268 1856.68 269.265C1856.67 269.453 1856.65 269.64 1856.64 269.843C1856.58 270.854 1856.52 271.851 1856.49 272.862C1856.48 273.065 1856.48 273.281 1856.48 273.484C1856.46 273.931 1856.45 274.379 1856.43 274.827C1837.8 266.895 1827.28 259.397 1828.38 253.661C1829.47 248.056 1841.52 244.993 1861.03 244.4C1859.64 249.211 1858.55 254.124 1857.78 259.137ZM2097.56 288.437C2118.92 297.048 2131.22 305.254 2130.03 311.423C2128.83 317.694 2113.89 320.785 2090.18 320.8C2094.02 310.744 2096.57 299.923 2097.56 288.437ZM1810.11 255.178C1812.57 242.406 1839.57 238.751 1863.01 238.014C1862.68 238.968 1862.38 239.922 1862.07 240.89C1832.37 241.93 1814.53 247.275 1812.9 255.713C1811.21 264.526 1827.16 276.72 1856.67 289.203C1856.77 289.246 1856.85 289.275 1856.96 289.318C1856.96 289.318 1856.96 289.318 1856.97 289.318C1857.01 289.708 1857.04 290.098 1857.09 290.489C1857.16 291.168 1857.25 291.861 1857.32 292.54C1856.72 292.295 1856.14 292.049 1855.56 291.803C1833.41 282.456 1807.54 268.499 1810.11 255.178ZM2151.16 320.468C2148.59 333.788 2119.38 337.198 2095.33 337.704C2092.96 337.747 2090.53 337.776 2088.08 337.776C2086.11 337.776 2084.11 337.762 2082.1 337.733C2082.63 336.808 2083.17 335.854 2083.69 334.915C2087.67 334.973 2091.54 334.959 2095.28 334.872C2127.33 334.179 2146.68 328.732 2148.38 319.933C2150.07 311.12 2134.12 298.926 2104.6 286.443C2102.43 285.519 2100.18 284.608 2097.89 283.698C2097.89 283.554 2097.9 283.395 2097.9 283.25C2097.95 282.398 2097.98 281.531 2098.01 280.679C2100.64 281.719 2103.21 282.773 2105.71 283.828C2127.86 293.19 2153.72 307.147 2151.16 320.468Z" fill="url(#paint40_radial_0_1)"/>
<path d="M2073.62 277.515C2073.62 354.911 1986.79 399.497 1923.73 357.281C1868.07 320.049 1866.56 238.737 1921.08 199.583C1921.08 199.583 1921.09 199.569 1921.12 199.555C1921.19 199.511 1921.19 199.497 1921.21 199.482C1921.25 199.439 1921.29 199.41 1921.34 199.396C1984.05 154.579 2073.62 198.731 2073.62 277.515Z" fill="url(#paint41_radial_0_1)"/>
<path d="M1936.54 277.515C1937.1 283.164 1917.28 277.515 1904.82 277.515C1896.5 277.515 1887.66 279.032 1881.04 276.836C1881.1 267.719 1882.44 258.906 1884.88 250.57C1888.26 250.136 1893.98 251.104 1902.56 257.75C1917.85 269.597 1935.97 271.866 1936.54 277.515Z" fill="url(#paint42_linear_0_1)"/>
<path d="M2002.8 289.362C1988.65 288.235 1972.78 284.276 1969.95 287.108C1967.13 289.925 1992.79 297.135 2016.4 301.223C2042.45 305.745 2058.88 307.436 2053.22 300.096C2047.55 292.757 2038.49 283.713 2024.32 288.235C2010.18 292.757 2010.71 289.997 2002.8 289.362Z" fill="url(#paint43_linear_0_1)"/>
<path d="M2001.67 328.905C2001.67 335.017 1945.59 318.734 1926.9 326.088C1912.93 331.578 1908.46 335.479 1899.99 334.757C1890.02 321.378 1883.44 305.326 1881.58 287.874C1886.46 289.723 1894.86 293.306 1908.21 300.111C1932.58 312.521 2001.67 320.424 2001.67 328.905Z" fill="url(#paint44_linear_0_1)"/>
<path d="M2045.9 344.899C2038.58 352.31 2030.05 358.537 2020.64 363.262C2018.12 361.008 2015.64 358.465 2011.87 357.136C2002.24 353.741 1976.76 347.543 1981.85 344.148C1986.95 340.752 2003.37 343.021 2022.63 341.894C2034.29 341.2 2041.8 343.208 2045.9 344.899Z" fill="url(#paint45_linear_0_1)"/>
<path d="M2037.93 329.469C2031.15 322.288 2011.87 323.82 2014.7 330.596C2016.25 334.28 2046.98 339.062 2037.93 329.469Z" fill="url(#paint46_linear_0_1)"/>
<path d="M1955.8 339.625C1947.38 337.762 1941.64 341.316 1940.51 344.148C1939.38 346.965 1963.74 350.923 1964.3 348.106C1964.87 345.289 1960.9 340.752 1955.8 339.625Z" fill="url(#paint47_linear_0_1)"/>
<path d="M1952.4 291.066C1946.8 289.665 1936.55 292.193 1936.55 295.589C1936.55 298.984 1950.14 302.928 1955.81 301.238C1961.46 299.533 1963.72 293.884 1952.4 291.066Z" fill="url(#paint48_linear_0_1)"/>
<path d="M1962.03 301.787C1960.35 301.512 1958.06 303.477 1959.2 305.182C1960.33 306.872 1968.82 302.928 1962.03 301.787Z" fill="url(#paint49_linear_0_1)"/>
<path d="M2019.24 317.607C2015.6 316.523 2013 318.171 2014.7 321.566C2016.41 324.947 2030.57 320.988 2019.24 317.607Z" fill="url(#paint50_linear_0_1)"/>
<path d="M2045.85 335.118C2043.85 333.124 2042.45 336.808 2043.59 337.935C2044.72 339.062 2050.39 339.625 2045.85 335.118Z" fill="url(#paint51_linear_0_1)"/>
<path d="M1994.3 372.017C1988.79 373 1983.11 373.505 1977.33 373.505C1957.49 373.505 1939.04 367.524 1923.73 357.266C1935.07 354.001 1953.94 356.674 1972.81 365.602C1981.59 369.778 1988.79 371.468 1994.3 372.017Z" fill="url(#paint52_linear_0_1)"/>
<path d="M1998.28 361.658C1995.4 361.658 1995.46 363.349 1995.46 365.053C1995.46 366.744 1998.28 367.307 1999.99 365.053C2001.67 362.785 2000.54 361.658 1998.28 361.658Z" fill="url(#paint53_linear_0_1)"/>
<path d="M1990.92 363.349C1989.8 363.161 1989.23 366.166 1990.92 366.744C1992.62 367.307 1994.31 363.912 1990.92 363.349Z" fill="url(#paint54_linear_0_1)"/>
<path d="M1926.35 332.286C1922.42 333.066 1916.71 335.681 1921.82 339.062C1926.92 342.457 1937.67 330.032 1926.35 332.286Z" fill="url(#paint55_linear_0_1)"/>
<path d="M1907.66 285.417C1905.61 283.38 1904.25 288.813 1905.4 289.376C1906.51 289.94 1909.92 287.671 1907.66 285.417Z" fill="url(#paint56_linear_0_1)"/>
<path d="M1924.08 253.228C1919.06 250.728 1912.18 248.706 1911.05 250.974C1909.92 253.228 1931.44 268.485 1936.54 265.089C1941.64 261.694 1928.61 255.482 1924.08 253.228Z" fill="url(#paint57_linear_0_1)"/>
<path d="M2007.34 277.515C2003.76 275.723 2003.93 283.727 2009.03 285.981C2014.13 288.235 2009.61 278.642 2007.34 277.515Z" fill="url(#paint58_linear_0_1)"/>
<path d="M2062.85 287.108C2056.01 286.79 2058.32 297.843 2062.85 298.969C2067.39 300.096 2074.75 287.671 2062.85 287.108Z" fill="url(#paint59_linear_0_1)"/>
<path opacity="0.45" d="M2031.44 356.919C2027.99 359.26 2024.39 361.369 2020.64 363.262C2012.45 367.379 2003.6 370.37 1994.28 372.017C1988.78 373 1983.1 373.505 1977.31 373.505C1957.48 373.505 1939.03 367.524 1923.71 357.266C1914.57 351.155 1906.56 343.526 1900.01 334.728C1898.59 332.82 1897.22 330.856 1895.95 328.833C1888.26 316.74 1883.2 302.798 1881.59 287.845C1881.23 284.449 1881.04 280.982 1881.04 277.5C1881.04 277.269 1881.04 277.038 1881.04 276.821C1881.1 269.308 1882.01 261.998 1883.71 254.991C1895.73 286.66 1918.71 322.953 1962.55 342.486C1968 344.913 1973.76 347.08 1979.86 348.944C1998.14 354.521 2015.4 356.862 2031.44 356.919Z" fill="url(#paint60_linear_0_1)"/>
<path opacity="0.55" d="M2068.13 309.502C2063.37 322.909 2055.72 334.959 2045.9 344.899C2041.49 349.363 2036.65 353.394 2031.44 356.919C2027.99 359.26 2024.39 361.369 2020.64 363.262C2012.45 367.379 2003.6 370.37 1994.28 372.017C1988.78 373 1983.1 373.505 1977.31 373.505C1957.48 373.505 1939.03 367.524 1923.71 357.266C1914.57 351.155 1906.56 343.526 1900.01 334.728C1898.59 332.82 1897.23 330.856 1895.95 328.833C1920.58 337.429 1942.74 341.561 1962.55 342.472C2010.96 344.697 2045.43 327.663 2068.13 309.502Z" fill="url(#paint61_linear_0_1)"/>
<path d="M1921.34 199.396C1921.27 199.453 1921.21 199.482 1921.18 199.511C1921.21 199.482 1921.28 199.425 1921.34 199.396Z" fill="url(#paint62_linear_0_1)"/>
<path d="M2072.91 289.159C2073.34 284.926 2076.82 237.321 2018.96 205.507C1961.3 173.809 1924.76 197.07 1921.34 199.396C1937.12 188.126 1956.45 181.495 1977.33 181.495C2035.23 181.509 2079.92 232.105 2072.91 289.159Z" fill="url(#paint63_linear_0_1)"/>
<path d="M2078.83 284.637C2077.1 283.9 2075.31 283.164 2073.49 282.441C2073.43 283.713 2073.33 284.955 2073.23 286.212C2090.25 293.075 2100.06 299.62 2099.12 304.532C2098.17 309.545 2086.2 312.001 2067.21 312.001C2044.36 312.001 2011.34 308.447 1975.07 301.512C1936.13 294.057 1902.12 284.363 1881.07 275.376C1866.23 269.048 1857.83 263.081 1858.71 258.516C1859.56 254.037 1869.19 251.61 1884.72 251.133C1884.78 250.931 1884.82 250.743 1884.88 250.555C1885.1 249.804 1885.33 249.067 1885.56 248.33C1861.9 249.154 1847.67 253.43 1846.38 260.148C1845.03 267.17 1857.74 276.893 1881.26 286.833C1881.33 286.862 1881.42 286.891 1881.49 286.934C1905.8 297.178 1938.9 306.598 1974.72 313.461C2006.51 319.543 2037.06 322.967 2062 323.271C2065.24 323.314 2068.39 323.299 2071.42 323.242C2096.95 322.693 2112.38 318.344 2113.73 311.337C2115.08 304.301 2102.37 294.577 2078.83 284.637Z" fill="url(#paint64_linear_0_1)"/>
<path d="M2073.62 277.24V277.515C2073.62 278.367 2073.6 279.205 2073.59 280.057C2075.69 280.881 2077.75 281.719 2079.73 282.571C2097.38 290.026 2118 301.151 2115.96 311.756C2113.92 322.36 2090.63 325.077 2071.47 325.496C2069.59 325.539 2067.66 325.553 2065.69 325.553C2064.07 325.553 2062.42 325.539 2060.74 325.51C2035.9 325.091 2005.69 321.681 1974.29 315.671C1938.89 308.895 1906.12 299.62 1881.78 289.506C1881.3 289.304 1880.84 289.116 1880.37 288.914C1862.72 281.459 1842.1 270.334 1844.15 259.729C1846.1 249.544 1867.64 246.64 1886.33 246.047C1886.72 244.906 1887.14 243.765 1887.59 242.638C1855.85 243.259 1834.77 249.081 1832.73 259.672C1830.55 270.97 1850.49 285.201 1883.27 298.16C1906.96 307.523 1937.38 316.22 1971 322.664C2002.38 328.674 2031.91 331.809 2056.45 332.243C2094.51 332.907 2120.55 327.041 2122.83 315.209C2124.96 304.055 2105.6 290.055 2073.62 277.24Z" fill="url(#paint65_linear_0_1)"/>
</g>
<g clip-path="url(#clip6_0_1)">
<path d="M937.022 162.599C843.667 171.489 793.42 283.166 855.261 359.436C883.827 394.81 931.543 412.32 978.59 400.147C1003.79 393.615 1025.57 379.135 1041.1 360.295C1108.87 278.418 1045.04 152.245 937.022 162.599Z" fill="url(#paint66_radial_0_1)"/>
<path d="M1041.6 282.998C1041.6 285.759 1041.49 288.487 1041.25 291.197C1041.03 293.723 1040.72 296.215 1040.3 298.673C1039.89 301.08 1039.39 303.454 1038.82 305.778C1037.13 312.563 1034.7 319.062 1031.63 325.157C1030.65 327.11 1029.59 329.029 1028.48 330.915C1026.41 334.4 1024.13 337.751 1021.62 340.933C1020.34 342.549 1019.04 344.115 1017.66 345.63C1008.83 355.48 997.941 363.427 985.694 368.797C984.789 369.202 983.868 369.572 982.946 369.942C980.215 371.037 977.434 371.996 974.586 372.838C972.558 373.428 970.514 373.949 968.437 374.404C962.02 375.801 955.352 376.542 948.516 376.542C922.111 376.542 898.286 365.497 881.331 347.752C879.32 345.647 877.41 343.441 875.601 341.152C871.915 336.505 868.681 331.487 865.917 326.184C865.213 324.837 864.543 323.456 863.906 322.059C861.577 316.991 859.701 311.688 858.31 306.182C856.417 298.757 855.412 290.979 855.412 282.964C855.412 278.031 855.797 273.199 856.517 268.485C856.802 266.666 857.121 264.882 857.506 263.114C857.925 261.127 858.427 259.174 858.964 257.238C859.969 253.685 861.192 250.2 862.599 246.833C865.146 240.721 868.329 234.929 872.049 229.558C874.327 226.275 876.807 223.144 879.471 220.18C884.514 214.591 890.211 209.624 896.443 205.381C896.644 205.246 896.845 205.112 897.046 204.977C901.201 202.199 905.591 199.758 910.182 197.67C919.296 193.528 929.181 190.817 939.569 189.841C942.501 189.555 945.467 189.42 948.466 189.42C957.412 189.42 966.074 190.7 974.267 193.057C977.752 194.067 981.153 195.262 984.454 196.66C985.694 197.182 986.917 197.72 988.123 198.293C993.15 200.667 997.925 203.495 1002.41 206.694C1007.27 210.18 1011.78 214.102 1015.89 218.429C1023.76 226.747 1030.13 236.495 1034.55 247.271C1035.1 248.618 1035.64 249.998 1036.12 251.379C1037.7 255.79 1038.96 260.353 1039.86 265.05C1041.02 270.892 1041.6 276.886 1041.6 282.998Z" fill="url(#paint67_radial_0_1)"/>
<path d="M1041.6 282.998C1041.6 290.861 1040.63 298.488 1038.82 305.778C992.329 285.742 912.377 322.615 858.31 306.199C856.417 298.774 855.412 290.995 855.412 282.981C855.412 278.048 855.797 273.216 856.517 268.502C951.532 302.343 986.079 255.251 1039.89 265.101C1041.02 270.892 1041.6 276.886 1041.6 282.998Z" fill="url(#paint68_linear_0_1)"/>
<path d="M1036.17 251.429C985.543 242.859 926.618 277.947 858.997 257.255C860.002 253.702 861.225 250.217 862.633 246.85C917.52 268.316 983.7 240.974 1034.6 247.321C1035.15 248.685 1035.69 250.049 1036.17 251.429Z" fill="url(#paint69_linear_0_1)"/>
<path d="M1015.94 218.497C962.69 251.513 895.438 236.411 872.082 229.592C874.361 226.309 876.84 223.177 879.504 220.214C945.986 237.236 987.503 216.577 1002.46 206.762C1007.32 210.23 1011.83 214.17 1015.94 218.497Z" fill="url(#paint70_linear_0_1)"/>
<path d="M988.173 198.343C965.79 212.89 935.481 203.159 896.477 205.415C900.816 202.468 905.407 199.892 910.215 197.704C933.822 198.731 967.147 206.61 984.504 196.693C985.744 197.215 986.967 197.771 988.173 198.343Z" fill="url(#paint71_linear_0_1)"/>
<path d="M974.335 193.09C968.035 196.171 956.34 198.798 939.636 189.875C942.568 189.588 945.534 189.454 948.533 189.454C957.48 189.454 966.125 190.716 974.335 193.09Z" fill="url(#paint72_linear_0_1)"/>
<path d="M1031.63 325.157C1030.65 327.11 1029.59 329.029 1028.48 330.915C988.491 312.715 914.671 332.952 865.933 326.218C865.229 324.871 864.559 323.49 863.922 322.093C927.807 330.023 997.086 303.875 1031.63 325.157Z" fill="url(#paint73_linear_0_1)"/>
<path d="M974.585 372.821C972.558 373.411 970.514 373.933 968.436 374.387C951.246 371.575 898.135 341.32 881.33 347.752C879.32 345.647 877.41 343.441 875.6 341.152C912.929 340.781 952.352 371.037 974.585 372.821Z" fill="url(#paint74_linear_0_1)"/>
<path d="M1017.68 345.63C1008.85 355.48 997.958 363.427 985.71 368.797C968.152 363.46 958.015 353.022 951.883 350.075C942.92 345.748 940.222 342.297 974.753 339.704C992.345 338.357 1007.27 341.876 1017.68 345.63Z" fill="url(#paint75_linear_0_1)"/>
<path opacity="0.45" d="M1040.31 298.673C1034.16 335.68 1005.88 366.171 968.453 374.404C901.989 388.934 843.198 329.467 857.539 263.148C865.246 277.795 882.386 293.42 919.782 299.245C976.378 308.034 1013.24 292.359 1040.31 298.673Z" fill="url(#paint76_linear_0_1)"/>
<path opacity="0.55" d="M1020.12 342.785C1019.34 343.745 1018.52 344.704 1017.68 345.63C1008.85 355.48 997.958 363.427 985.711 368.797C984.806 369.202 983.884 369.572 982.963 369.942C980.232 371.037 977.451 371.996 974.603 372.838C972.575 373.428 970.531 373.949 968.454 374.404C962.037 375.801 955.368 376.542 948.533 376.542C922.128 376.542 898.303 365.497 881.347 347.752C879.622 345.933 877.963 344.064 876.388 342.111C891.685 347.886 913.885 349.048 946.07 341.051C974.351 334.013 999.03 335.932 1020.12 342.785Z" fill="url(#paint77_linear_0_1)"/>
<path d="M1041.6 282.998C1041.6 285.759 1041.49 288.487 1041.25 291.197C1040.98 270.101 1033.73 244.863 1008.24 222.891C959.322 180.699 909.696 199.202 897.096 205.011C901.251 202.233 905.641 199.791 910.232 197.704C919.346 193.562 929.231 190.851 939.619 189.875C942.551 189.588 945.516 189.454 948.515 189.454C957.462 189.454 966.124 190.733 974.317 193.09C977.802 194.101 981.203 195.296 984.504 196.693C985.744 197.215 986.967 197.754 988.173 198.327C993.199 200.701 997.974 203.529 1002.46 206.728C1007.32 210.213 1011.83 214.136 1015.94 218.463C1023.81 226.78 1030.18 236.529 1034.6 247.304C1035.15 248.651 1035.69 250.032 1036.17 251.412C1037.75 255.824 1039.01 260.386 1039.91 265.084C1041.02 270.892 1041.6 276.886 1041.6 282.998Z" fill="url(#paint78_linear_0_1)"/>
</g>
<rect x="40" y="4" width="80.3828" height="30" rx="3" fill="#101010"/>
<rect x="40.5" y="4.5" width="79.3828" height="29" rx="2.5" stroke="white" stroke-opacity="0.0980392"/>
<path d="M51.3438 16C51.2969 15.6042 51.1068 15.2969 50.7734 15.0781C50.4401 14.8594 50.0313 14.75 49.5469 14.75C49.1927 14.75 48.8828 14.8073 48.6172 14.9219C48.3542 15.0365 48.1484 15.194 48 15.3945C47.8542 15.5951 47.7813 15.8229 47.7813 16.0781C47.7813 16.2917 47.832 16.4753 47.9336 16.6289C48.0378 16.7799 48.1706 16.9062 48.332 17.0078C48.4935 17.1068 48.6628 17.1888 48.8398 17.2539C49.0169 17.3164 49.1797 17.3672 49.3281 17.4062L50.1406 17.625C50.349 17.6797 50.5807 17.7552 50.8359 17.8516C51.0938 17.9479 51.3398 18.0794 51.5742 18.2461C51.8112 18.4102 52.0065 18.6211 52.1602 18.8789C52.3138 19.1367 52.3906 19.4531 52.3906 19.8281C52.3906 20.2604 52.2773 20.651 52.0508 21C51.8268 21.349 51.4987 21.6263 51.0664 21.832C50.6367 22.0378 50.1146 22.1406 49.5 22.1406C48.9271 22.1406 48.431 22.0482 48.0117 21.8633C47.5951 21.6784 47.2669 21.4206 47.0273 21.0898C46.7904 20.7591 46.6563 20.375 46.625 19.9375H47.625C47.651 20.2396 47.7526 20.4896 47.9297 20.6875C48.1094 20.8828 48.3359 21.0286 48.6094 21.125C48.8854 21.2187 49.1823 21.2656 49.5 21.2656C49.8698 21.2656 50.2018 21.2057 50.4961 21.0859C50.7904 20.9635 51.0234 20.7943 51.1953 20.5781C51.3672 20.3594 51.4531 20.1042 51.4531 19.8125C51.4531 19.5469 51.3789 19.3307 51.2305 19.1641C51.082 18.9974 50.8867 18.862 50.6445 18.7578C50.4023 18.6536 50.1406 18.5625 49.8594 18.4844L48.875 18.2031C48.25 18.0234 47.7552 17.7669 47.3906 17.4336C47.026 17.1003 46.8438 16.6641 46.8438 16.125C46.8438 15.6771 46.9648 15.2865 47.207 14.9531C47.4518 14.6172 47.7799 14.3568 48.1914 14.1719C48.6055 13.9844 49.0677 13.8906 49.5781 13.8906C50.0938 13.8906 50.5521 13.9831 50.9531 14.168C51.3542 14.3503 51.6719 14.6003 51.9062 14.918C52.1432 15.2357 52.2682 15.5964 52.2813 16H51.3438ZM56.2959 22.125C55.7542 22.125 55.279 21.9961 54.8701 21.7383C54.4639 21.4805 54.1462 21.1198 53.917 20.6562C53.6904 20.1927 53.5771 19.651 53.5771 19.0312C53.5771 18.4062 53.6904 17.8607 53.917 17.3945C54.1462 16.9284 54.4639 16.5664 54.8701 16.3086C55.279 16.0508 55.7542 15.9219 56.2959 15.9219C56.8376 15.9219 57.3115 16.0508 57.7178 16.3086C58.1266 16.5664 58.4443 16.9284 58.6709 17.3945C58.9001 17.8607 59.0146 18.4062 59.0146 19.0312C59.0146 19.651 58.9001 20.1927 58.6709 20.6562C58.4443 21.1198 58.1266 21.4805 57.7178 21.7383C57.3115 21.9961 56.8376 22.125 56.2959 22.125ZM56.2959 21.2969C56.7074 21.2969 57.0459 21.1914 57.3115 20.9805C57.5771 20.7695 57.7738 20.4922 57.9014 20.1484C58.029 19.8047 58.0928 19.4323 58.0928 19.0312C58.0928 18.6302 58.029 18.2565 57.9014 17.9102C57.7738 17.5638 57.5771 17.2839 57.3115 17.0703C57.0459 16.8568 56.7074 16.75 56.2959 16.75C55.8844 16.75 55.5459 16.8568 55.2803 17.0703C55.0146 17.2839 54.818 17.5638 54.6904 17.9102C54.5628 18.2565 54.499 18.6302 54.499 19.0312C54.499 19.4323 54.5628 19.8047 54.6904 20.1484C54.818 20.4922 55.0146 20.7695 55.2803 20.9805C55.5459 21.1914 55.8844 21.2969 56.2959 21.2969ZM61.3438 14V22H60.4219V14H61.3438ZM64.7979 22.1406C64.4176 22.1406 64.0726 22.069 63.7627 21.9258C63.4528 21.7799 63.2067 21.5703 63.0244 21.2969C62.8421 21.0208 62.751 20.6875 62.751 20.2969C62.751 19.9531 62.8187 19.6745 62.9541 19.4609C63.0895 19.2448 63.2705 19.0755 63.4971 18.9531C63.7236 18.8307 63.9736 18.7396 64.2471 18.6797C64.5231 18.6172 64.8005 18.5677 65.0791 18.5313C65.4437 18.4844 65.7393 18.4492 65.9658 18.4258C66.195 18.3997 66.3617 18.3568 66.4658 18.2969C66.5726 18.237 66.626 18.1328 66.626 17.9844V17.9531C66.626 17.5677 66.5205 17.2682 66.3096 17.0547C66.1012 16.8411 65.7848 16.7344 65.3604 16.7344C64.9202 16.7344 64.5752 16.8307 64.3252 17.0234C64.0752 17.2161 63.8994 17.4219 63.7979 17.6406L62.9229 17.3281C63.0791 16.9635 63.2874 16.6797 63.5479 16.4766C63.8109 16.2708 64.0973 16.1276 64.4072 16.0469C64.7197 15.9635 65.027 15.9219 65.3291 15.9219C65.5218 15.9219 65.7432 15.9453 65.9932 15.9922C66.2458 16.0365 66.4893 16.1289 66.7236 16.2695C66.9606 16.4102 67.1572 16.6224 67.3135 16.9062C67.4697 17.1901 67.5479 17.5703 67.5479 18.0469V22H66.626V21.1875H66.5791C66.5166 21.3177 66.4124 21.457 66.2666 21.6055C66.1208 21.7539 65.9268 21.8802 65.6846 21.9844C65.4424 22.0885 65.1468 22.1406 64.7979 22.1406ZM64.9385 21.3125C65.3031 21.3125 65.6104 21.2409 65.8604 21.0977C66.113 20.9544 66.3031 20.7695 66.4307 20.543C66.5609 20.3164 66.626 20.0781 66.626 19.8281V18.9844C66.5869 19.0312 66.501 19.0742 66.3682 19.1133C66.238 19.1497 66.0869 19.1823 65.915 19.2109C65.7458 19.237 65.5804 19.2604 65.4189 19.2812C65.2601 19.2995 65.1312 19.3151 65.0322 19.3281C64.7926 19.3594 64.5687 19.4102 64.3604 19.4805C64.1546 19.5482 63.988 19.651 63.8604 19.7891C63.7354 19.9245 63.6729 20.1094 63.6729 20.3437C63.6729 20.6641 63.7913 20.9062 64.0283 21.0703C64.2679 21.2318 64.5713 21.3125 64.9385 21.3125ZM69.2305 22V16H70.1211V16.9062H70.1836C70.293 16.6094 70.4909 16.3685 70.7773 16.1836C71.0638 15.9987 71.3867 15.9062 71.7461 15.9062C71.8138 15.9062 71.8984 15.9076 72 15.9102C72.1016 15.9128 72.1784 15.9167 72.2305 15.9219V16.8594C72.1992 16.8516 72.1276 16.8398 72.0156 16.8242C71.9063 16.806 71.7904 16.7969 71.668 16.7969C71.3763 16.7969 71.1159 16.8581 70.8867 16.9805C70.6602 17.1003 70.4805 17.2669 70.3477 17.4805C70.2174 17.6914 70.1523 17.9323 70.1523 18.2031V22H69.2305ZM80.917 16C80.8701 15.6042 80.68 15.2969 80.3467 15.0781C80.0133 14.8594 79.6045 14.75 79.1201 14.75C78.766 14.75 78.4561 14.8073 78.1904 14.9219C77.9274 15.0365 77.7217 15.194 77.5732 15.3945C77.4274 15.5951 77.3545 15.8229 77.3545 16.0781C77.3545 16.2917 77.4053 16.4753 77.5068 16.6289C77.611 16.7799 77.7438 16.9062 77.9053 17.0078C78.0667 17.1068 78.236 17.1888 78.4131 17.2539C78.5902 17.3164 78.7529 17.3672 78.9014 17.4062L79.7139 17.625C79.9222 17.6797 80.154 17.7552 80.4092 17.8516C80.667 17.9479 80.9131 18.0794 81.1475 18.2461C81.3844 18.4102 81.5798 18.6211 81.7334 18.8789C81.887 19.1367 81.9639 19.4531 81.9639 19.8281C81.9639 20.2604 81.8506 20.651 81.624 21C81.4001 21.349 81.0719 21.6263 80.6396 21.832C80.21 22.0378 79.6878 22.1406 79.0732 22.1406C78.5003 22.1406 78.0042 22.0482 77.585 21.8633C77.1683 21.6784 76.8402 21.4206 76.6006 21.0898C76.3636 20.7591 76.2295 20.375 76.1982 19.9375H77.1982C77.2243 20.2396 77.3258 20.4896 77.5029 20.6875C77.6826 20.8828 77.9092 21.0286 78.1826 21.125C78.4587 21.2187 78.7555 21.2656 79.0732 21.2656C79.443 21.2656 79.7751 21.2057 80.0693 21.0859C80.3636 20.9635 80.5967 20.7943 80.7686 20.5781C80.9404 20.3594 81.0264 20.1042 81.0264 19.8125C81.0264 19.5469 80.9521 19.3307 80.8037 19.1641C80.6553 18.9974 80.46 18.862 80.2178 18.7578C79.9756 18.6536 79.7139 18.5625 79.4326 18.4844L78.4482 18.2031C77.8232 18.0234 77.3285 17.7669 76.9639 17.4336C76.5993 17.1003 76.417 16.6641 76.417 16.125C76.417 15.6771 76.5381 15.2865 76.7803 14.9531C77.0251 14.6172 77.3532 14.3568 77.7646 14.1719C78.1787 13.9844 78.641 13.8906 79.1514 13.8906C79.667 13.8906 80.1253 13.9831 80.5264 14.168C80.9274 14.3503 81.2451 14.6003 81.4795 14.918C81.7165 15.2357 81.8415 15.5964 81.8545 16H80.917ZM84.0254 24.25C83.8691 24.25 83.7298 24.237 83.6074 24.2109C83.485 24.1875 83.4004 24.1641 83.3535 24.1406L83.5879 23.3281C83.8118 23.3854 84.0098 23.4063 84.1816 23.3906C84.3535 23.375 84.5059 23.2982 84.6387 23.1602C84.7741 23.0247 84.8978 22.8047 85.0098 22.5L85.1816 22.0313L82.9629 16H83.9629L85.6191 20.7812H85.6816L87.3379 16H88.3379L85.791 22.875C85.6764 23.1849 85.5345 23.4414 85.3652 23.6445C85.196 23.8503 84.9993 24.0026 84.7754 24.1016C84.554 24.2005 84.304 24.25 84.0254 24.25ZM93.8047 17.3437L92.9766 17.5781C92.9245 17.4401 92.8477 17.306 92.7461 17.1758C92.6471 17.043 92.5117 16.9336 92.3398 16.8477C92.168 16.7617 91.9479 16.7187 91.6797 16.7187C91.3125 16.7187 91.0065 16.8034 90.7617 16.9727C90.5195 17.1393 90.3984 17.3516 90.3984 17.6094C90.3984 17.8385 90.4818 18.0195 90.6484 18.1523C90.8151 18.2852 91.0755 18.3958 91.4297 18.4844L92.3203 18.7031C92.8568 18.8333 93.2565 19.0326 93.5195 19.3008C93.7826 19.5664 93.9141 19.9089 93.9141 20.3281C93.9141 20.6719 93.8151 20.9792 93.6172 21.25C93.4219 21.5208 93.1484 21.7344 92.7969 21.8906C92.4453 22.0469 92.0365 22.125 91.5703 22.125C90.9583 22.125 90.4518 21.9922 90.0508 21.7266C89.6497 21.4609 89.3958 21.0729 89.2891 20.5625L90.1641 20.3437C90.2474 20.6667 90.4049 20.9089 90.6367 21.0703C90.8711 21.2318 91.1771 21.3125 91.5547 21.3125C91.9844 21.3125 92.3255 21.2214 92.5781 21.0391C92.8333 20.8542 92.9609 20.6328 92.9609 20.375C92.9609 20.1667 92.888 19.9922 92.7422 19.8516C92.5964 19.7083 92.3724 19.6016 92.0703 19.5312L91.0703 19.2969C90.5208 19.1667 90.1172 18.9648 89.8594 18.6914C89.6042 18.4154 89.4766 18.0703 89.4766 17.6562C89.4766 17.3177 89.5716 17.0182 89.7617 16.7578C89.9544 16.4974 90.2161 16.293 90.5469 16.1445C90.8802 15.9961 91.2578 15.9219 91.6797 15.9219C92.2734 15.9219 92.7396 16.0521 93.0781 16.3125C93.4193 16.5729 93.6615 16.9167 93.8047 17.3437ZM97.9111 16V16.7812H94.8018V16H97.9111ZM95.708 14.5625H96.6299V20.2812C96.6299 20.5417 96.6676 20.737 96.7432 20.8672C96.8213 20.9948 96.9202 21.0807 97.04 21.125C97.1624 21.1667 97.2913 21.1875 97.4268 21.1875C97.5283 21.1875 97.6117 21.1823 97.6768 21.1719C97.7419 21.1589 97.7939 21.1484 97.833 21.1406L98.0205 21.9687C97.958 21.9922 97.8708 22.0156 97.7588 22.0391C97.6468 22.0651 97.5049 22.0781 97.333 22.0781C97.0726 22.0781 96.8174 22.0221 96.5674 21.9102C96.32 21.7982 96.1143 21.6276 95.9502 21.3984C95.7887 21.1693 95.708 20.8802 95.708 20.5312V14.5625ZM101.749 22.125C101.171 22.125 100.672 21.9974 100.253 21.7422C99.8363 21.4844 99.5146 21.125 99.2881 20.6641C99.0641 20.2005 98.9521 19.6615 98.9521 19.0469C98.9521 18.4323 99.0641 17.8906 99.2881 17.4219C99.5146 16.9505 99.8298 16.5833 100.233 16.3203C100.64 16.0547 101.114 15.9219 101.655 15.9219C101.968 15.9219 102.276 15.974 102.581 16.0781C102.886 16.1823 103.163 16.3516 103.413 16.5859C103.663 16.8177 103.862 17.125 104.011 17.5078C104.159 17.8906 104.233 18.362 104.233 18.9219V19.3125H99.6084V18.5156H103.296C103.296 18.1771 103.228 17.875 103.093 17.6094C102.96 17.3437 102.77 17.1341 102.522 16.9805C102.278 16.8268 101.989 16.75 101.655 16.75C101.288 16.75 100.97 16.8411 100.702 17.0234C100.437 17.2031 100.232 17.4375 100.089 17.7266C99.9456 18.0156 99.874 18.3255 99.874 18.6562V19.1875C99.874 19.6406 99.9521 20.0247 100.108 20.3398C100.267 20.6523 100.487 20.8906 100.769 21.0547C101.05 21.2161 101.377 21.2969 101.749 21.2969C101.991 21.2969 102.21 21.263 102.405 21.1953C102.603 21.125 102.774 21.0208 102.917 20.8828C103.06 20.7422 103.171 20.5677 103.249 20.3594L104.14 20.6094C104.046 20.9115 103.888 21.1771 103.667 21.4062C103.446 21.6328 103.172 21.8099 102.847 21.9375C102.521 22.0625 102.155 22.125 101.749 22.125ZM105.636 22V16H106.526V16.9375H106.604C106.729 16.6172 106.931 16.3685 107.21 16.1914C107.489 16.0117 107.823 15.9219 108.214 15.9219C108.61 15.9219 108.939 16.0117 109.202 16.1914C109.468 16.3685 109.675 16.6172 109.823 16.9375H109.886C110.039 16.6276 110.27 16.3815 110.577 16.1992C110.884 16.0143 111.253 15.9219 111.683 15.9219C112.219 15.9219 112.658 16.0898 112.999 16.4258C113.34 16.7591 113.511 17.2786 113.511 17.9844V22H112.589V17.9844C112.589 17.5417 112.468 17.2253 112.226 17.0352C111.983 16.8451 111.698 16.75 111.37 16.75C110.948 16.75 110.621 16.8776 110.39 17.1328C110.158 17.3854 110.042 17.7057 110.042 18.0937V22H109.104V17.8906C109.104 17.5495 108.994 17.2747 108.772 17.0664C108.551 16.8555 108.266 16.75 107.917 16.75C107.677 16.75 107.453 16.8138 107.245 16.9414C107.039 17.069 106.873 17.2461 106.745 17.4727C106.62 17.6966 106.558 17.9557 106.558 18.25V22H105.636Z" fill="white"/>
<defs>
<radialGradient id="paint0_radial_0_1" cx="0" cy="0" r="1" gradientUnits="userSpaceOnUse" gradientTransform="translate(1189.5 278.493) scale(111.5 111.584)">
<stop stop-color="#FFD86C"/>
<stop offset="1" stop-color="#FFD160" stop-opacity="0"/>
</radialGradient>
<radialGradient id="paint1_radial_0_1" cx="0" cy="0" r="1" gradientUnits="userSpaceOnUse" gradientTransform="translate(1185.39 228.957) scale(142.146 142.253)">
<stop stop-color="#FFE46A"/>
<stop offset="1" stop-color="#FFA44A"/>
</radialGradient>
<linearGradient id="paint2_linear_0_1" x1="1109.98" y1="327.518" x2="1274.66" y2="250.532" gradientUnits="userSpaceOnUse">
<stop stop-color="#E27437"/>
<stop offset="1" stop-color="#E27437" stop-opacity="0.2"/>
</linearGradient>
<linearGradient id="paint3_linear_0_1" x1="1171.51" y1="413.021" x2="1170.6" y2="182.145" gradientUnits="userSpaceOnUse">
<stop stop-color="#CC622E"/>
<stop offset="1" stop-color="#CC622E" stop-opacity="0.2"/>
</linearGradient>
<linearGradient id="paint4_linear_0_1" x1="1272.3" y1="185.074" x2="1215.62" y2="247.83" gradientUnits="userSpaceOnUse">
<stop stop-color="#FFF2B6"/>
<stop offset="1" stop-color="#FFF49A" stop-opacity="0.2"/>
</linearGradient>
<radialGradient id="paint5_radial_0_1" cx="0" cy="0" r="1" gradientUnits="userSpaceOnUse" gradientTransform="translate(1687 277.997) scale(103.608 103.686)">
<stop stop-color="#EFC390"/>
<stop offset="1" stop-color="#F9B5A6" stop-opacity="0"/>
</radialGradient>
<radialGradient id="paint6_radial_0_1" cx="0" cy="0" r="1" gradientUnits="userSpaceOnUse" gradientTransform="translate(1683.16 244.145) scale(87.5714 87.6376)">
<stop stop-color="#EACCA0"/>
<stop offset="1" stop-color="#D98301"/>
</radialGradient>
<linearGradient id="paint7_linear_0_1" x1="1689.41" y1="393.418" x2="1616.72" y2="208.739" gradientUnits="userSpaceOnUse">
<stop stop-color="#A65B31"/>
<stop offset="1" stop-color="#B16E31" stop-opacity="0.2"/>
</linearGradient>
<linearGradient id="paint8_linear_0_1" x1="1668.34" y1="401.712" x2="1595.65" y2="217.033" gradientUnits="userSpaceOnUse">
<stop stop-color="#A66231"/>
<stop offset="1" stop-color="#B18D31" stop-opacity="0.2"/>
</linearGradient>
<linearGradient id="paint9_linear_0_1" x1="1718.21" y1="382.086" x2="1645.52" y2="197.407" gradientUnits="userSpaceOnUse">
<stop stop-color="#A64D31"/>
<stop offset="1" stop-color="#B16E31" stop-opacity="0.2"/>
</linearGradient>
<linearGradient id="paint10_linear_0_1" x1="1761.34" y1="365.109" x2="1688.65" y2="180.43" gradientUnits="userSpaceOnUse">
<stop stop-color="#A64D31"/>
<stop offset="1" stop-color="#B16731" stop-opacity="0.2"/>
</linearGradient>
<linearGradient id="paint11_linear_0_1" x1="1702.69" y1="388.193" x2="1630" y2="203.514" gradientUnits="userSpaceOnUse">
<stop stop-color="#A66931"/>
<stop offset="1" stop-color="#B16E31" stop-opacity="0.2"/>
</linearGradient>
<linearGradient id="paint12_linear_0_1" x1="1764.25" y1="363.961" x2="1691.56" y2="179.281" gradientUnits="userSpaceOnUse">
<stop stop-color="#A66931"/>
<stop offset="1" stop-color="#B16E31" stop-opacity="0.2"/>
</linearGradient>
<linearGradient id="paint13_linear_0_1" x1="1735.65" y1="375.219" x2="1662.96" y2="190.54" gradientUnits="userSpaceOnUse">
<stop stop-color="#A65431"/>
<stop offset="1" stop-color="#B16E31" stop-opacity="0.2"/>
</linearGradient>
<linearGradient id="paint14_linear_0_1" x1="1726.06" y1="378.995" x2="1653.37" y2="194.315" gradientUnits="userSpaceOnUse">
<stop stop-color="#A66231"/>
<stop offset="1" stop-color="#B15F31" stop-opacity="0.2"/>
</linearGradient>
<linearGradient id="paint15_linear_0_1" x1="1666.83" y1="368.465" x2="1692.71" y2="240.964" gradientUnits="userSpaceOnUse">
<stop stop-color="#A35A31"/>
<stop offset="1" stop-color="#B87B42" stop-opacity="0.3"/>
</linearGradient>
<linearGradient id="paint16_linear_0_1" x1="1694.32" y1="387.111" x2="1684.52" y2="298.486" gradientUnits="userSpaceOnUse">
<stop stop-color="#A35C1A"/>
<stop offset="1" stop-color="#A3662E" stop-opacity="0.1"/>
</linearGradient>
<linearGradient id="paint17_linear_0_1" x1="1795.16" y1="135.076" x2="1698.27" y2="254.032" gradientUnits="userSpaceOnUse">
<stop stop-color="#F6E4A4"/>
<stop offset="1" stop-color="#F9E2B5" stop-opacity="0"/>
</linearGradient>
<radialGradient id="paint18_radial_0_1" cx="0" cy="0" r="1" gradientUnits="userSpaceOnUse" gradientTransform="translate(1445 277.998) scale(106.11 106.199)">
<stop stop-color="#E5AC77"/>
<stop offset="1" stop-color="#F6B895" stop-opacity="0"/>
</radialGradient>
<radialGradient id="paint19_radial_0_1" cx="0" cy="0" r="1" gradientUnits="userSpaceOnUse" gradientTransform="translate(1455.06 231.228) scale(106.552 106.642)">
<stop stop-color="#EFA08F"/>
<stop offset="1" stop-color="#C97324"/>
</radialGradient>
<linearGradient id="paint20_linear_0_1" x1="1401.49" y1="383.052" x2="1477.28" y2="174.397" gradientUnits="userSpaceOnUse">
<stop stop-color="#864313"/>
<stop offset="1" stop-color="#9B4413" stop-opacity="0.1"/>
</linearGradient>
<linearGradient id="paint21_linear_0_1" x1="1390.37" y1="379.013" x2="1466.16" y2="170.357" gradientUnits="userSpaceOnUse">
<stop stop-color="#863613"/>
<stop offset="1" stop-color="#9B4C13" stop-opacity="0.1"/>
</linearGradient>
<linearGradient id="paint22_linear_0_1" x1="1400.71" y1="382.769" x2="1476.51" y2="174.115" gradientUnits="userSpaceOnUse">
<stop stop-color="#865113"/>
<stop offset="1" stop-color="#9B3C13" stop-opacity="0.1"/>
</linearGradient>
<linearGradient id="paint23_linear_0_1" x1="1404.5" y1="384.147" x2="1480.3" y2="175.491" gradientUnits="userSpaceOnUse">
<stop stop-color="#864A13"/>
<stop offset="1" stop-color="#9B3C13" stop-opacity="0.1"/>
</linearGradient>
<linearGradient id="paint24_linear_0_1" x1="1406.22" y1="384.772" x2="1482.02" y2="176.117" gradientUnits="userSpaceOnUse">
<stop stop-color="#864A13"/>
<stop offset="1" stop-color="#9B3C13" stop-opacity="0.1"/>
</linearGradient>
<linearGradient id="paint25_linear_0_1" x1="1355.87" y1="366.48" x2="1431.66" y2="157.825" gradientUnits="userSpaceOnUse">
<stop stop-color="#863C13"/>
<stop offset="1" stop-color="#9B5413" stop-opacity="0.1"/>
</linearGradient>
<linearGradient id="paint26_linear_0_1" x1="1430.36" y1="393.543" x2="1506.16" y2="184.888" gradientUnits="userSpaceOnUse">
<stop stop-color="#864A13"/>
<stop offset="1" stop-color="#9B6513" stop-opacity="0.1"/>
</linearGradient>
<linearGradient id="paint27_linear_0_1" x1="1444.94" y1="398.837" x2="1520.74" y2="190.182" gradientUnits="userSpaceOnUse">
<stop stop-color="#863C13"/>
<stop offset="1" stop-color="#9B4413" stop-opacity="0.1"/>
</linearGradient>
<linearGradient id="paint28_linear_0_1" x1="1454.75" y1="356.462" x2="1408.34" y2="187.214" gradientUnits="userSpaceOnUse">
<stop stop-color="#7F4612"/>
<stop offset="1" stop-color="#D5743D" stop-opacity="0.1"/>
</linearGradient>
<linearGradient id="paint29_linear_0_1" x1="1459.21" y1="370.62" x2="1445.04" y2="288.198" gradientUnits="userSpaceOnUse">
<stop stop-color="#6D2812"/>
<stop offset="1" stop-color="#6A3C12" stop-opacity="0"/>
</linearGradient>
<radialGradient id="paint30_radial_0_1" cx="0" cy="0" r="1" gradientUnits="userSpaceOnUse" gradientTransform="translate(1444.66 322.794) scale(72.1281 72.1886)">
<stop stop-color="#EFA68F"/>
<stop offset="1" stop-color="#C96924"/>
</radialGradient>
<linearGradient id="paint31_linear_0_1" x1="1522.7" y1="144.456" x2="1434.54" y2="285.081" gradientUnits="userSpaceOnUse">
<stop stop-color="#FFDFAE"/>
<stop offset="1" stop-color="#FFD5AE" stop-opacity="0"/>
</linearGradient>
<radialGradient id="paint32_radial_0_1" cx="0" cy="0" r="1" gradientUnits="userSpaceOnUse" gradientTransform="translate(707.002 282.993) scale(111.963 112.047)">
<stop stop-color="#F8F8F8"/>
<stop offset="1" stop-color="white" stop-opacity="0"/>
</radialGradient>
<radialGradient id="paint33_radial_0_1" cx="0" cy="0" r="1" gradientUnits="userSpaceOnUse" gradientTransform="translate(702.874 233.251) scale(142.736 142.843)">
<stop stop-color="#E8E8E8"/>
<stop offset="1" stop-color="#DFDFDF"/>
</radialGradient>
<linearGradient id="paint34_linear_0_1" x1="688.936" y1="418.079" x2="688.023" y2="186.245" gradientUnits="userSpaceOnUse">
<stop/>
<stop offset="1" stop-opacity="0.2"/>
</linearGradient>
<linearGradient id="paint35_linear_0_1" x1="790.143" y1="189.187" x2="733.226" y2="252.202" gradientUnits="userSpaceOnUse">
<stop stop-color="#B7B7B7"/>
<stop offset="0.557292" stop-color="#AEAEAE" stop-opacity="0.2"/>
</linearGradient>
<radialGradient id="paint36_radial_0_1" cx="0" cy="0" r="1" gradientUnits="userSpaceOnUse" gradientTransform="translate(429.979 281.972) rotate(0.490606) scale(120.099 114.361)">
<stop stop-color="#FFD83D"/>
<stop offset="1" stop-color="#FCC724" stop-opacity="0"/>
</radialGradient>
<radialGradient id="paint37_radial_0_1" cx="0" cy="0" r="1" gradientUnits="userSpaceOnUse" gradientTransform="translate(430.92 245.075) scale(99.3385 99.3385)">
<stop stop-color="#FFD83D"/>
<stop offset="1" stop-color="#FC7B24"/>
</radialGradient>
<linearGradient id="paint38_linear_0_1" x1="413.524" y1="384.009" x2="428.755" y2="286.421" gradientUnits="userSpaceOnUse">
<stop stop-color="#E04127"/>
<stop offset="1" stop-color="#E04127" stop-opacity="0.1"/>
</linearGradient>
<linearGradient id="paint39_linear_0_1" x1="456.211" y1="389.37" x2="431.674" y2="289.53" gradientUnits="userSpaceOnUse">
<stop stop-color="#C22C27"/>
<stop offset="1" stop-color="#D33127" stop-opacity="0.2"/>
</linearGradient>
<radialGradient id="paint40_radial_0_1" cx="0" cy="0" r="1" gradientUnits="userSpaceOnUse" gradientTransform="translate(1977.77 277.515) scale(112.271 111.94)">
<stop stop-color="#F9AB63"/>
<stop offset="1" stop-color="#FFCC9C" stop-opacity="0"/>
</radialGradient>
<radialGradient id="paint41_radial_0_1" cx="0" cy="0" r="1" gradientUnits="userSpaceOnUse" gradientTransform="translate(1984.14 235.994) scale(114.821 114.482)">
<stop stop-color="#FBDFB6"/>
<stop offset="1" stop-color="#ED8D35"/>
</radialGradient>
<linearGradient id="paint42_linear_0_1" x1="1891.26" y1="396.625" x2="1926.73" y2="147.558" gradientUnits="userSpaceOnUse">
<stop stop-color="#BD602B"/>
<stop offset="1" stop-color="#E28E2B" stop-opacity="0"/>
</linearGradient>
<linearGradient id="paint43_linear_0_1" x1="1995.37" y1="411.454" x2="2030.85" y2="162.388" gradientUnits="userSpaceOnUse">
<stop stop-color="#BD7A2B"/>
<stop offset="1" stop-color="#E2832B" stop-opacity="0"/>
</linearGradient>
<linearGradient id="paint44_linear_0_1" x1="1928.24" y1="401.892" x2="1963.71" y2="152.826" gradientUnits="userSpaceOnUse">
<stop stop-color="#BD712B"/>
<stop offset="1" stop-color="#E2992B" stop-opacity="0"/>
</linearGradient>
<linearGradient id="paint45_linear_0_1" x1="2003.85" y1="412.661" x2="2039.32" y2="163.595" gradientUnits="userSpaceOnUse">
<stop stop-color="#BD602B"/>
<stop offset="1" stop-color="#E22B57" stop-opacity="0"/>
</linearGradient>
<linearGradient id="paint46_linear_0_1" x1="2015.06" y1="414.259" x2="2050.53" y2="165.192" gradientUnits="userSpaceOnUse">
<stop stop-color="#BD712B"/>
<stop offset="1" stop-color="#E22B57" stop-opacity="0"/>
</linearGradient>
<linearGradient id="paint47_linear_0_1" x1="1944.08" y1="404.149" x2="1979.56" y2="155.082" gradientUnits="userSpaceOnUse">
<stop stop-color="#BD832B"/>
<stop offset="1" stop-color="#E22B57" stop-opacity="0"/>
</linearGradient>
<linearGradient id="paint48_linear_0_1" x1="1933.26" y1="402.609" x2="1968.74" y2="153.541" gradientUnits="userSpaceOnUse">
<stop stop-color="#BD832B"/>
<stop offset="1" stop-color="#E22B57" stop-opacity="0"/>
</linearGradient>
<linearGradient id="paint49_linear_0_1" x1="1947.31" y1="404.608" x2="1982.78" y2="155.542" gradientUnits="userSpaceOnUse">
<stop stop-color="#BD712B"/>
<stop offset="1" stop-color="#E22B57" stop-opacity="0"/>
</linearGradient>
<linearGradient id="paint50_linear_0_1" x1="2005.56" y1="412.907" x2="2041.04" y2="163.839" gradientUnits="userSpaceOnUse">
<stop stop-color="#BD602B"/>
<stop offset="1" stop-color="#E2782B" stop-opacity="0"/>
</linearGradient>
<linearGradient id="paint51_linear_0_1" x1="2033.96" y1="416.95" x2="2069.44" y2="167.888" gradientUnits="userSpaceOnUse">
<stop stop-color="#BD7A2B"/>
<stop offset="1" stop-color="#E22B57" stop-opacity="0"/>
</linearGradient>
<linearGradient id="paint52_linear_0_1" x1="1953.16" y1="405.442" x2="1988.63" y2="156.376" gradientUnits="userSpaceOnUse">
<stop stop-color="#BD832B"/>
<stop offset="1" stop-color="#E2992B" stop-opacity="0"/>
</linearGradient>
<linearGradient id="paint53_linear_0_1" x1="1991.35" y1="410.881" x2="2026.83" y2="161.818" gradientUnits="userSpaceOnUse">
<stop stop-color="#BD832B"/>
<stop offset="1" stop-color="#E2782B" stop-opacity="0"/>
</linearGradient>
<linearGradient id="paint54_linear_0_1" x1="1984.92" y1="409.966" x2="2020.4" y2="160.899" gradientUnits="userSpaceOnUse">
<stop stop-color="#BD7A2B"/>
<stop offset="1" stop-color="#E2992B" stop-opacity="0"/>
</linearGradient>
<linearGradient id="paint55_linear_0_1" x1="1916.24" y1="400.182" x2="1951.71" y2="151.118" gradientUnits="userSpaceOnUse">
<stop stop-color="#BD712B"/>
<stop offset="1" stop-color="#E2992B" stop-opacity="0"/>
</linearGradient>
<linearGradient id="paint56_linear_0_1" x1="1891.07" y1="396.599" x2="1926.54" y2="147.531" gradientUnits="userSpaceOnUse">
<stop stop-color="#BD602B"/>
<stop offset="1" stop-color="#E2992B" stop-opacity="0"/>
</linearGradient>
<linearGradient id="paint57_linear_0_1" x1="1904.13" y1="398.457" x2="1939.6" y2="149.391" gradientUnits="userSpaceOnUse">
<stop stop-color="#BD712B"/>
<stop offset="1" stop-color="#E2A42B" stop-opacity="0"/>
</linearGradient>
<linearGradient id="paint58_linear_0_1" x1="1989.73" y1="410.652" x2="2025.21" y2="161.585" gradientUnits="userSpaceOnUse">
<stop stop-color="#BD712B"/>
<stop offset="1" stop-color="#E2832B" stop-opacity="0"/>
</linearGradient>
<linearGradient id="paint59_linear_0_1" x1="2045.73" y1="418.628" x2="2081.21" y2="169.56" gradientUnits="userSpaceOnUse">
<stop stop-color="#BD712B"/>
<stop offset="1" stop-color="#E2A42B" stop-opacity="0"/>
</linearGradient>
<linearGradient id="paint60_linear_0_1" x1="1946.63" y1="368.685" x2="1961.28" y2="283.395" gradientUnits="userSpaceOnUse">
<stop stop-color="#BD712B"/>
<stop offset="1" stop-color="#E2992B" stop-opacity="0"/>
</linearGradient>
<linearGradient id="paint61_linear_0_1" x1="1996.85" y1="377.891" x2="1979.66" y2="309.327" gradientUnits="userSpaceOnUse">
<stop stop-color="#A66D2B"/>
<stop offset="1" stop-color="#AE522B" stop-opacity="0"/>
</linearGradient>
<linearGradient id="paint62_linear_0_1" x1="1921.33" y1="199.342" x2="1921.17" y2="199.568" gradientUnits="userSpaceOnUse">
<stop stop-color="#FADBD1"/>
<stop offset="1" stop-color="#F9F1DD" stop-opacity="0"/>
</linearGradient>
<linearGradient id="paint63_linear_0_1" x1="2053.28" y1="165.736" x2="2011.42" y2="224.622" gradientUnits="userSpaceOnUse">
<stop stop-color="#FAEAD1"/>
<stop offset="1" stop-color="#F9E4DD" stop-opacity="0"/>
</linearGradient>
<linearGradient id="paint64_linear_0_1" x1="1965.72" y1="336.28" x2="1988.81" y2="254.357" gradientUnits="userSpaceOnUse">
<stop stop-color="#FAC2B0"/>
<stop offset="1" stop-color="#F2AA68"/>
</linearGradient>
<linearGradient id="paint65_linear_0_1" x1="1964.05" y1="335.811" x2="1987.15" y2="253.889" gradientUnits="userSpaceOnUse">
<stop stop-color="#FAC2B0"/>
<stop offset="1" stop-color="#F29168"/>
</linearGradient>
<radialGradient id="paint66_radial_0_1" cx="0" cy="0" r="1" gradientUnits="userSpaceOnUse" gradientTransform="translate(948.5 282.99) scale(111.503 112.05)">
<stop stop-color="#FFB16C"/>
<stop offset="1" stop-color="#FFA360" stop-opacity="0"/>
</radialGradient>
<radialGradient id="paint67_radial_0_1" cx="0" cy="0" r="1" gradientUnits="userSpaceOnUse" gradientTransform="translate(933.736 230.171) scale(152.503 153.251)">
<stop stop-color="#FFA360"/>
<stop offset="1" stop-color="#F22749"/>
</radialGradient>
<linearGradient id="paint68_linear_0_1" x1="932.177" y1="168.607" x2="969.583" y2="427.841" gradientUnits="userSpaceOnUse">
<stop stop-color="#FFBB71"/>
<stop offset="1" stop-color="#FFBB71" stop-opacity="0"/>
</linearGradient>
<linearGradient id="paint69_linear_0_1" x1="935.272" y1="168.16" x2="972.678" y2="427.393" gradientUnits="userSpaceOnUse">
<stop stop-color="#FFBB71"/>
<stop offset="1" stop-color="#FFBB71" stop-opacity="0"/>
</linearGradient>
<linearGradient id="paint70_linear_0_1" x1="936.015" y1="168.053" x2="973.421" y2="427.286" gradientUnits="userSpaceOnUse">
<stop stop-color="#FFBB71"/>
<stop offset="1" stop-color="#FFBB71" stop-opacity="0"/>
</linearGradient>
<linearGradient id="paint71_linear_0_1" x1="937.467" y1="167.843" x2="974.873" y2="427.078" gradientUnits="userSpaceOnUse">
<stop stop-color="#FFBB71"/>
<stop offset="1" stop-color="#FFBB71" stop-opacity="0"/>
</linearGradient>
<linearGradient id="paint72_linear_0_1" x1="953.272" y1="165.562" x2="990.679" y2="424.799" gradientUnits="userSpaceOnUse">
<stop stop-color="#FFBB71"/>
<stop offset="1" stop-color="#FFBB71" stop-opacity="0"/>
</linearGradient>
<linearGradient id="paint73_linear_0_1" x1="925.764" y1="169.532" x2="963.17" y2="428.766" gradientUnits="userSpaceOnUse">
<stop stop-color="#FFBB71"/>
<stop offset="1" stop-color="#FFBB71" stop-opacity="0"/>
</linearGradient>
<linearGradient id="paint74_linear_0_1" x1="898.869" y1="173.412" x2="936.275" y2="432.647" gradientUnits="userSpaceOnUse">
<stop stop-color="#FFBB71"/>
<stop offset="1" stop-color="#FFBB71" stop-opacity="0"/>
</linearGradient>
<linearGradient id="paint75_linear_0_1" x1="956.074" y1="165.159" x2="993.48" y2="424.393" gradientUnits="userSpaceOnUse">
<stop stop-color="#FFBB71"/>
<stop offset="1" stop-color="#FFBB71" stop-opacity="0"/>
</linearGradient>
<linearGradient id="paint76_linear_0_1" x1="935.442" y1="374.828" x2="953.983" y2="245.671" gradientUnits="userSpaceOnUse">
<stop stop-color="#D8274D"/>
<stop offset="1" stop-color="#F22749" stop-opacity="0"/>
</linearGradient>
<linearGradient id="paint77_linear_0_1" x1="951.748" y1="374.108" x2="944.643" y2="310.467" gradientUnits="userSpaceOnUse">
<stop stop-color="#A9273E"/>
<stop offset="1" stop-color="#B62738" stop-opacity="0"/>
</linearGradient>
<linearGradient id="paint78_linear_0_1" x1="1035.08" y1="169.321" x2="964.302" y2="253.101" gradientUnits="userSpaceOnUse">
<stop stop-color="#FFECB8"/>
<stop offset="1" stop-color="#FFD371" stop-opacity="0.2"/>
</linearGradient>
<clipPath id="clip0_0_1">
<rect width="241" height="241" fill="white" transform="translate(1069 158)"/>
</clipPath>
<clipPath id="clip1_0_1">
<rect width="242" height="242" fill="white" transform="translate(1566 157)"/>
</clipPath>
<clipPath id="clip2_0_1">
<rect width="242" height="242" fill="white" transform="translate(1324 157)"/>
</clipPath>
<clipPath id="clip3_0_1">
<rect width="242" height="242" fill="white" transform="translate(586 162)"/>
</clipPath>
<clipPath id="clip4_0_1">
<rect width="286" height="286" fill="white" transform="translate(286 140)"/>
</clipPath>
<clipPath id="clip5_0_1">
<rect width="307" height="241" fill="white" transform="translate(1822 157)"/>
</clipPath>
<clipPath id="clip6_0_1">
<rect width="241" height="242" fill="white" transform="translate(828 162)"/>
</clipPath>
</defs>
</svg>
