<svg width="307" height="241" viewBox="0 0 307 241" fill="none" xmlns="http://www.w3.org/2000/svg">
<g clip-path="url(#clip0_103_8)">
<path d="M276.049 120.168C276.049 116.007 275.832 111.889 275.397 107.815C272.195 75.9143 257.023 49.2438 235.418 30.4184C215.479 12.7344 189.57 1.46515 160.792 0.164849C135.1 -1.17879 108.524 5.64056 84.9482 22.4866C84.8902 22.5155 84.8323 22.5588 84.7888 22.6022C84.7743 22.6166 84.7598 22.6311 84.6729 22.6889C84.6439 22.7033 84.6294 22.7178 84.6294 22.7178C64.618 37.0933 50.6201 56.0054 42.5924 76.7379C2.78685 77.518 -23.6729 84.8142 -26.2232 98.1205C-28.9474 112.294 -3.93676 130.151 37.2019 146.419C37.2598 146.679 37.3178 146.939 37.3758 147.185C37.3903 147.243 37.4047 147.301 37.4192 147.344C37.6511 148.384 37.9119 149.424 38.1727 150.465C38.2017 150.595 38.2307 150.71 38.2742 150.84C38.535 151.866 38.8248 152.892 39.1146 153.903C39.1436 153.99 39.1581 154.077 39.1871 154.163C39.8102 156.287 40.4767 158.382 41.2158 160.448C41.2302 160.506 41.2592 160.549 41.2737 160.607C41.5925 161.503 41.9113 162.398 42.2591 163.28C49.997 183.796 63.5167 202.52 82.7167 216.852C83.2093 217.228 83.7165 217.603 84.2237 217.965C84.557 218.21 84.8902 218.441 85.2235 218.687C86.1364 219.337 87.0493 219.973 87.9767 220.58C111.495 236.313 137.636 242.439 162.777 240.72C167.443 240.431 172.036 239.882 176.543 239.087C188.237 237.021 199.337 233.265 209.61 228.092C210.683 227.558 211.74 226.994 212.798 226.416C212.972 226.315 213.16 226.229 213.334 226.127C214.378 225.55 215.421 224.972 216.45 224.365C216.537 224.321 216.624 224.264 216.696 224.22C217.711 223.628 218.71 223.007 219.71 222.386C219.797 222.328 219.884 222.284 219.957 222.227C220.985 221.576 222.014 220.897 223.029 220.218C223.072 220.189 223.115 220.161 223.159 220.132C223.246 220.074 223.318 220.016 223.405 219.958C224.057 219.51 224.695 219.077 225.333 218.615C225.492 218.499 225.651 218.398 225.796 218.282C226.434 217.82 227.057 217.358 227.695 216.895C227.825 216.794 227.955 216.693 228.086 216.606C229.578 215.479 231.027 214.338 232.462 213.139C232.679 212.966 232.882 212.778 233.099 212.604C233.578 212.2 234.056 211.795 234.52 211.391C234.795 211.16 235.07 210.914 235.346 210.668C235.751 210.307 236.157 209.946 236.563 209.57C236.838 209.325 237.113 209.065 237.389 208.805C237.418 208.776 237.447 208.747 237.476 208.718C237.621 208.588 237.765 208.443 237.925 208.313C244.156 202.578 249.793 196.163 254.719 189.156C302.379 189.965 334.953 182.596 337.823 167.773C340.474 153.817 316.174 136.263 276.049 120.168ZM39.2161 86.6924H39.2016C39.332 86.2734 39.4624 85.8544 39.5928 85.4354C39.4624 85.8544 39.3465 86.2734 39.2161 86.6924ZM35.7818 102.137C35.7673 102.224 35.7528 102.31 35.7383 102.397C35.5789 103.423 35.434 104.463 35.3181 105.503C35.3036 105.677 35.2746 105.836 35.2602 106.009C35.1297 107.049 35.0138 108.089 34.9269 109.13C34.9269 109.173 34.9124 109.216 34.9124 109.26C34.8254 110.257 34.7385 111.268 34.6805 112.265C34.666 112.453 34.6515 112.64 34.6371 112.843C34.5791 113.854 34.5211 114.851 34.4921 115.862C34.4777 116.065 34.4777 116.281 34.4777 116.484C34.4632 116.931 34.4487 117.379 34.4342 117.827C15.7994 109.895 5.27922 102.397 6.3805 96.6613C7.46729 91.0556 19.5234 87.9927 39.0277 87.4003C37.6366 92.2114 36.5498 97.1236 35.7818 102.137ZM275.557 131.437C296.916 140.048 309.218 148.254 308.03 154.423C306.827 160.694 291.888 163.785 268.181 163.8C272.021 153.744 274.571 142.923 275.557 131.437ZM-11.8921 98.1783C-9.42867 85.4065 17.5672 81.7512 41.0129 81.0144C40.6796 81.9679 40.3753 82.9215 40.071 83.8895C10.3654 84.9297 -7.47245 90.2754 -9.09539 98.7129C-10.7908 107.526 5.1633 119.72 34.666 132.203C34.7675 132.246 34.8544 132.275 34.9558 132.318C34.9558 132.318 34.9558 132.318 34.9703 132.318C35.0138 132.708 35.0428 133.098 35.0863 133.489C35.1587 134.168 35.2457 134.861 35.3181 135.54C34.724 135.295 34.1444 135.049 33.5648 134.803C11.4087 125.456 -14.4569 111.499 -11.8921 98.1783ZM329.157 163.468C326.592 176.788 297.379 180.198 273.325 180.704C270.963 180.747 268.529 180.776 266.08 180.776C264.109 180.776 262.11 180.762 260.095 180.733C260.632 179.808 261.168 178.854 261.689 177.915C265.674 177.973 269.543 177.959 273.282 177.872C305.335 177.179 324.68 171.732 326.375 162.933C328.07 154.12 312.116 141.926 282.599 129.443C280.426 128.519 278.18 127.608 275.89 126.698C275.89 126.554 275.905 126.395 275.905 126.25C275.948 125.398 275.977 124.531 276.006 123.679C278.643 124.719 281.208 125.773 283.715 126.828C305.856 136.19 331.722 150.147 329.157 163.468Z" fill="url(#paint0_radial_103_8)"/>
<path d="M251.618 120.515C251.618 197.911 164.791 242.497 101.728 200.281C46.07 163.049 44.563 81.7368 99.0764 42.5835C99.0764 42.5835 99.0909 42.569 99.1199 42.5545C99.1923 42.5112 99.1923 42.4968 99.2068 42.4823C99.2503 42.439 99.2938 42.4101 99.3372 42.3956C162.052 -2.42125 251.618 41.7311 251.618 120.515Z" fill="url(#paint1_radial_103_8)"/>
<path d="M114.538 120.515C115.103 126.164 95.2799 120.515 82.818 120.515C74.5005 120.515 65.6612 122.032 59.0391 119.836C59.097 110.719 60.4446 101.906 62.8791 93.5695C66.2553 93.1361 71.9791 94.1041 80.5575 100.75C95.845 112.597 113.973 114.866 114.538 120.515Z" fill="url(#paint2_linear_103_8)"/>
<path d="M180.803 132.362C166.646 131.235 150.779 127.276 147.953 130.108C145.127 132.925 170.79 140.135 194.395 144.223C220.449 148.745 236.881 150.436 231.215 143.096C225.55 135.757 216.493 126.713 202.321 131.235C188.179 135.757 188.715 132.997 180.803 132.362Z" fill="url(#paint3_linear_103_8)"/>
<path d="M179.673 171.905C179.673 178.017 123.595 161.734 104.902 169.088C90.933 174.578 86.4554 178.479 77.9929 177.757C68.0234 164.378 61.4447 148.326 59.5754 130.874C64.4588 132.723 72.8633 136.306 86.209 143.111C110.582 155.521 179.673 163.424 179.673 171.905Z" fill="url(#paint4_linear_103_8)"/>
<path d="M223.898 187.899C216.58 195.31 208.045 201.537 198.641 206.262C196.119 204.008 193.642 201.465 189.874 200.136C180.238 196.741 154.763 190.543 159.85 187.148C164.95 183.752 181.368 186.021 200.626 184.894C212.291 184.2 219.797 186.208 223.898 187.899Z" fill="url(#paint5_linear_103_8)"/>
<path d="M215.928 172.469C209.146 165.288 189.874 166.82 192.7 173.596C194.25 177.28 224.985 182.062 215.928 172.469Z" fill="url(#paint6_linear_103_8)"/>
<path d="M133.796 182.625C125.377 180.762 119.639 184.316 118.508 187.148C117.378 189.965 141.737 193.923 142.302 191.106C142.867 188.289 138.897 183.752 133.796 182.625Z" fill="url(#paint7_linear_103_8)"/>
<path d="M130.405 134.066C124.797 132.665 114.552 135.193 114.552 138.589C114.552 141.984 128.144 145.928 133.81 144.238C139.461 142.533 141.722 136.884 130.405 134.066Z" fill="url(#paint8_linear_103_8)"/>
<path d="M140.027 144.787C138.346 144.512 136.056 146.477 137.201 148.182C138.331 149.872 146.823 145.928 140.027 144.787Z" fill="url(#paint9_linear_103_8)"/>
<path d="M197.235 160.607C193.598 159.523 191.004 161.171 192.7 164.566C194.41 167.947 208.567 163.988 197.235 160.607Z" fill="url(#paint10_linear_103_8)"/>
<path d="M223.855 178.118C221.855 176.124 220.449 179.808 221.594 180.935C222.724 182.062 228.39 182.625 223.855 178.118Z" fill="url(#paint11_linear_103_8)"/>
<path d="M172.297 215.017C166.791 216 161.11 216.505 155.329 216.505C135.491 216.505 117.045 210.524 101.728 200.266C113.074 197.001 131.941 199.674 150.807 208.602C159.589 212.778 166.791 214.468 172.297 215.017Z" fill="url(#paint12_linear_103_8)"/>
<path d="M176.282 204.658C173.398 204.658 173.456 206.349 173.456 208.053C173.456 209.744 176.282 210.307 177.992 208.053C179.673 205.785 178.543 204.658 176.282 204.658Z" fill="url(#paint13_linear_103_8)"/>
<path d="M168.921 206.349C167.805 206.161 167.225 209.166 168.921 209.744C170.616 210.307 172.312 206.912 168.921 206.349Z" fill="url(#paint14_linear_103_8)"/>
<path d="M104.351 175.286C100.424 176.066 94.7146 178.681 99.8152 182.062C104.916 185.457 115.668 173.032 104.351 175.286Z" fill="url(#paint15_linear_103_8)"/>
<path d="M85.6583 128.417C83.6151 126.38 82.253 131.813 83.3978 132.376C84.5136 132.94 87.9188 130.671 85.6583 128.417Z" fill="url(#paint16_linear_103_8)"/>
<path d="M102.076 96.2279C97.0623 93.7284 90.1793 91.7057 89.049 93.974C87.9188 96.2279 109.437 111.485 114.538 108.089C119.639 104.694 106.612 98.4817 102.076 96.2279Z" fill="url(#paint17_linear_103_8)"/>
<path d="M185.339 120.515C181.76 118.723 181.933 126.727 187.034 128.981C192.135 131.235 187.614 121.642 185.339 120.515Z" fill="url(#paint18_linear_103_8)"/>
<path d="M240.852 130.108C234.012 129.79 236.316 140.843 240.852 141.969C245.387 143.096 252.748 130.671 240.852 130.108Z" fill="url(#paint19_linear_103_8)"/>
<path opacity="0.45" d="M209.436 199.919C205.988 202.26 202.394 204.369 198.641 206.262C190.454 210.379 181.6 213.37 172.283 215.017C166.776 216 161.096 216.505 155.314 216.505C135.477 216.505 117.03 210.524 101.714 200.266C92.5702 194.155 84.5569 186.526 78.0072 177.728C76.5871 175.82 75.225 173.856 73.9498 171.833C66.2553 159.74 61.1981 145.798 59.5897 130.845C59.2274 127.449 59.0391 123.982 59.0391 120.5C59.0391 120.269 59.0391 120.038 59.0391 119.821C59.097 112.308 60.0099 104.998 61.7053 97.9905C73.7325 129.66 96.7145 165.953 140.548 185.486C145.997 187.913 151.764 190.08 157.865 191.944C176.137 197.521 193.395 199.862 209.436 199.919Z" fill="url(#paint20_linear_103_8)"/>
<path opacity="0.55" d="M246.127 152.502C241.374 165.909 233.723 177.959 223.898 187.899C219.493 192.363 214.653 196.394 209.437 199.919C205.988 202.26 202.394 204.369 198.641 206.262C190.454 210.379 181.6 213.37 172.283 215.017C166.777 216 161.096 216.505 155.315 216.505C135.477 216.505 117.031 210.524 101.714 200.266C92.5705 194.155 84.5573 186.526 78.0076 177.728C76.5875 175.82 75.2254 173.856 73.9502 171.833C98.5841 180.429 120.74 184.561 140.549 185.472C188.962 187.697 223.435 170.663 246.127 152.502Z" fill="url(#paint21_linear_103_8)"/>
<path d="M99.3374 42.3956C99.2649 42.4534 99.207 42.4823 99.178 42.5112C99.207 42.4823 99.2794 42.4245 99.3374 42.3956Z" fill="url(#paint22_linear_103_8)"/>
<path d="M250.908 132.159C251.343 127.926 254.821 80.3209 196.96 48.507C139.302 16.8087 102.757 40.0695 99.3374 42.3956C115.118 31.1264 134.448 24.4949 155.329 24.4949C213.233 24.5093 257.922 75.1053 250.908 132.159Z" fill="url(#paint23_linear_103_8)"/>
<path d="M256.835 127.637C255.096 126.9 253.314 126.164 251.488 125.441C251.43 126.713 251.329 127.955 251.227 129.212C268.254 136.075 278.064 142.62 277.122 147.532C276.165 152.545 264.196 155.001 245.214 155.001C222.362 155.001 189.338 151.447 153.068 144.512C114.132 137.057 80.1229 127.363 59.0681 118.376C44.2298 112.048 35.8253 106.081 36.7092 101.516C37.5642 97.037 47.1859 94.6098 62.7197 94.133C62.7777 93.9307 62.8212 93.7429 62.8791 93.5551C63.0965 92.8038 63.3284 92.067 63.5602 91.3301C39.8972 92.1537 25.6674 96.4302 24.3778 103.148C23.0302 110.17 35.7384 119.893 59.2565 129.833C59.329 129.862 59.4159 129.891 59.4884 129.934C83.8035 140.178 116.9 149.598 152.72 156.461C184.513 162.543 215.059 165.967 239.997 166.271C243.243 166.314 246.387 166.299 249.416 166.242C274.948 165.693 290.381 161.344 291.728 154.337C293.076 147.301 280.368 137.577 256.835 127.637Z" fill="url(#paint24_linear_103_8)"/>
<path d="M251.618 120.24V120.515C251.618 121.367 251.604 122.205 251.589 123.057C253.691 123.881 255.748 124.719 257.733 125.571C275.383 133.026 296.003 144.151 293.96 154.756C291.917 165.36 268.63 168.077 249.474 168.496C247.59 168.539 245.663 168.553 243.692 168.553C242.069 168.553 240.417 168.539 238.736 168.51C213.9 168.091 183.687 164.681 152.286 158.671C116.885 151.895 84.1223 142.62 59.7782 132.506C59.3 132.304 58.8363 132.116 58.3727 131.914C40.7232 124.459 20.1031 113.334 22.1463 102.729C24.1025 92.5437 45.6355 89.6397 64.3283 89.0474C64.7195 87.906 65.1397 86.7647 65.5889 85.6377C33.8547 86.259 12.7709 92.0814 10.7278 102.672C8.55419 113.97 28.4932 128.201 61.2708 141.16C84.9628 150.523 115.378 159.22 148.996 165.664C180.383 171.674 209.915 174.809 234.447 175.243C272.514 175.907 298.553 170.041 300.828 158.209C302.958 147.055 283.599 133.055 251.618 120.24Z" fill="url(#paint25_linear_103_8)"/>
</g>
<defs>
<radialGradient id="paint0_radial_103_8" cx="0" cy="0" r="1" gradientUnits="userSpaceOnUse" gradientTransform="translate(155.772 120.515) scale(112.271 111.94)">
<stop stop-color="#F9AB63"/>
<stop offset="1" stop-color="#FFCC9C" stop-opacity="0"/>
</radialGradient>
<radialGradient id="paint1_radial_103_8" cx="0" cy="0" r="1" gradientUnits="userSpaceOnUse" gradientTransform="translate(162.136 78.9936) scale(114.821 114.482)">
<stop stop-color="#FBDFB6"/>
<stop offset="1" stop-color="#ED8D35"/>
</radialGradient>
<linearGradient id="paint2_linear_103_8" x1="69.2576" y1="239.625" x2="104.734" y2="-9.44157" gradientUnits="userSpaceOnUse">
<stop stop-color="#BD602B"/>
<stop offset="1" stop-color="#E28E2B" stop-opacity="0"/>
</linearGradient>
<linearGradient id="paint3_linear_103_8" x1="173.371" y1="254.454" x2="208.847" y2="5.38834" gradientUnits="userSpaceOnUse">
<stop stop-color="#BD7A2B"/>
<stop offset="1" stop-color="#E2832B" stop-opacity="0"/>
</linearGradient>
<linearGradient id="paint4_linear_103_8" x1="106.239" y1="244.892" x2="141.715" y2="-4.17368" gradientUnits="userSpaceOnUse">
<stop stop-color="#BD712B"/>
<stop offset="1" stop-color="#E2992B" stop-opacity="0"/>
</linearGradient>
<linearGradient id="paint5_linear_103_8" x1="181.847" y1="255.661" x2="217.323" y2="6.59463" gradientUnits="userSpaceOnUse">
<stop stop-color="#BD602B"/>
<stop offset="1" stop-color="#E22B57" stop-opacity="0"/>
</linearGradient>
<linearGradient id="paint6_linear_103_8" x1="193.059" y1="257.259" x2="228.534" y2="8.19233" gradientUnits="userSpaceOnUse">
<stop stop-color="#BD712B"/>
<stop offset="1" stop-color="#E22B57" stop-opacity="0"/>
</linearGradient>
<linearGradient id="paint7_linear_103_8" x1="122.08" y1="247.149" x2="157.556" y2="-1.91844" gradientUnits="userSpaceOnUse">
<stop stop-color="#BD832B"/>
<stop offset="1" stop-color="#E22B57" stop-opacity="0"/>
</linearGradient>
<linearGradient id="paint8_linear_103_8" x1="111.265" y1="245.609" x2="146.741" y2="-3.45902" gradientUnits="userSpaceOnUse">
<stop stop-color="#BD832B"/>
<stop offset="1" stop-color="#E22B57" stop-opacity="0"/>
</linearGradient>
<linearGradient id="paint9_linear_103_8" x1="125.306" y1="247.608" x2="160.782" y2="-1.45822" gradientUnits="userSpaceOnUse">
<stop stop-color="#BD712B"/>
<stop offset="1" stop-color="#E22B57" stop-opacity="0"/>
</linearGradient>
<linearGradient id="paint10_linear_103_8" x1="183.563" y1="255.907" x2="219.039" y2="6.83898" gradientUnits="userSpaceOnUse">
<stop stop-color="#BD602B"/>
<stop offset="1" stop-color="#E2782B" stop-opacity="0"/>
</linearGradient>
<linearGradient id="paint11_linear_103_8" x1="211.963" y1="259.95" x2="247.438" y2="10.8877" gradientUnits="userSpaceOnUse">
<stop stop-color="#BD7A2B"/>
<stop offset="1" stop-color="#E22B57" stop-opacity="0"/>
</linearGradient>
<linearGradient id="paint12_linear_103_8" x1="131.159" y1="248.442" x2="166.635" y2="-0.623938" gradientUnits="userSpaceOnUse">
<stop stop-color="#BD832B"/>
<stop offset="1" stop-color="#E2992B" stop-opacity="0"/>
</linearGradient>
<linearGradient id="paint13_linear_103_8" x1="169.354" y1="253.881" x2="204.829" y2="4.81821" gradientUnits="userSpaceOnUse">
<stop stop-color="#BD832B"/>
<stop offset="1" stop-color="#E2782B" stop-opacity="0"/>
</linearGradient>
<linearGradient id="paint14_linear_103_8" x1="162.92" y1="252.966" x2="198.396" y2="3.89851" gradientUnits="userSpaceOnUse">
<stop stop-color="#BD7A2B"/>
<stop offset="1" stop-color="#E2992B" stop-opacity="0"/>
</linearGradient>
<linearGradient id="paint15_linear_103_8" x1="94.2351" y1="243.182" x2="129.71" y2="-5.88187" gradientUnits="userSpaceOnUse">
<stop stop-color="#BD712B"/>
<stop offset="1" stop-color="#E2992B" stop-opacity="0"/>
</linearGradient>
<linearGradient id="paint16_linear_103_8" x1="69.0687" y1="239.599" x2="104.545" y2="-9.46897" gradientUnits="userSpaceOnUse">
<stop stop-color="#BD602B"/>
<stop offset="1" stop-color="#E2992B" stop-opacity="0"/>
</linearGradient>
<linearGradient id="paint17_linear_103_8" x1="82.1265" y1="241.457" x2="117.602" y2="-7.60898" gradientUnits="userSpaceOnUse">
<stop stop-color="#BD712B"/>
<stop offset="1" stop-color="#E2A42B" stop-opacity="0"/>
</linearGradient>
<linearGradient id="paint18_linear_103_8" x1="167.733" y1="253.652" x2="203.209" y2="4.58451" gradientUnits="userSpaceOnUse">
<stop stop-color="#BD712B"/>
<stop offset="1" stop-color="#E2832B" stop-opacity="0"/>
</linearGradient>
<linearGradient id="paint19_linear_103_8" x1="223.732" y1="261.628" x2="259.208" y2="12.5603" gradientUnits="userSpaceOnUse">
<stop stop-color="#BD712B"/>
<stop offset="1" stop-color="#E2A42B" stop-opacity="0"/>
</linearGradient>
<linearGradient id="paint20_linear_103_8" x1="124.634" y1="211.685" x2="139.276" y2="126.395" gradientUnits="userSpaceOnUse">
<stop stop-color="#BD712B"/>
<stop offset="1" stop-color="#E2992B" stop-opacity="0"/>
</linearGradient>
<linearGradient id="paint21_linear_103_8" x1="174.852" y1="220.891" x2="157.657" y2="152.327" gradientUnits="userSpaceOnUse">
<stop stop-color="#A66D2B"/>
<stop offset="1" stop-color="#AE522B" stop-opacity="0"/>
</linearGradient>
<linearGradient id="paint22_linear_103_8" x1="99.3343" y1="42.3416" x2="99.1734" y2="42.5679" gradientUnits="userSpaceOnUse">
<stop stop-color="#FADBD1"/>
<stop offset="1" stop-color="#F9F1DD" stop-opacity="0"/>
</linearGradient>
<linearGradient id="paint23_linear_103_8" x1="231.283" y1="8.73627" x2="189.422" y2="67.6215" gradientUnits="userSpaceOnUse">
<stop stop-color="#FAEAD1"/>
<stop offset="1" stop-color="#F9E4DD" stop-opacity="0"/>
</linearGradient>
<linearGradient id="paint24_linear_103_8" x1="143.716" y1="179.28" x2="166.812" y2="97.3574" gradientUnits="userSpaceOnUse">
<stop stop-color="#FAC2B0"/>
<stop offset="1" stop-color="#F2AA68"/>
</linearGradient>
<linearGradient id="paint25_linear_103_8" x1="142.053" y1="178.811" x2="165.149" y2="96.8888" gradientUnits="userSpaceOnUse">
<stop stop-color="#FAC2B0"/>
<stop offset="1" stop-color="#F29168"/>
</linearGradient>
<clipPath id="clip0_103_8">
<rect width="307" height="241" fill="white"/>
</clipPath>
</defs>
</svg>
