<svg width="286" height="286" viewBox="0 0 286 286" fill="none" xmlns="http://www.w3.org/2000/svg">
<g clip-path="url(#clip0_102_203)">
<circle cx="143" cy="143" r="143" fill="url(#paint0_radial_102_203)"/>
<path d="M242.583 143.515C242.335 231.851 134.78 275.132 73.3281 213.68C10.5416 151.504 54.7191 43.8533 143.169 43.8533C200.827 43.8533 242.716 91.3866 242.583 143.515Z" fill="url(#paint1_radial_102_203)"/>
<g opacity="0.5">
<path d="M241.973 133.314C240.123 133.162 237.95 133.162 235.528 133.486C228.111 134.458 216.747 138.672 204.735 153.258C202.829 155.584 201.056 157.777 199.32 159.912C180.082 183.726 171.292 194.613 113.902 199.819C95.7694 201.458 83.2235 207.522 74.5291 214.881C74.1097 214.481 73.7092 214.1 73.3088 213.68C82.213 206.092 95.1211 199.819 113.749 198.141C170.415 192.993 178.5 183.002 198.005 158.844C199.721 156.709 201.494 154.516 203.42 152.19C215.832 137.108 227.673 132.78 235.414 131.789C237.778 131.484 239.913 131.465 241.763 131.598C241.858 132.17 241.934 132.742 241.973 133.314Z" fill="#FFED9F"/>
<path d="M241.458 157.243C241.382 157.796 241.306 158.349 241.21 158.883C232.382 158.749 224.508 162.353 217.701 169.655C213.735 173.907 210.341 177.892 207.348 181.4C192.609 198.675 183.705 209.104 139.947 216.159C122.997 218.885 110.527 224.834 102.805 233.834C102.271 233.605 101.737 233.357 101.204 233.109C109.173 223.595 122.101 217.322 139.68 214.5C182.828 207.541 191.084 197.874 206.07 180.313C209.083 176.786 212.496 172.782 216.481 168.511C224.679 159.683 233.622 157.09 241.458 157.243Z" fill="#FFED9F"/>
<path d="M235.032 180.866C234.785 181.457 234.537 182.068 234.27 182.659C227.158 183.86 221.057 187.597 216.042 193.87C202.39 210.935 193.334 219.743 169.367 226.874C153.16 231.679 146.315 237.704 143.474 242.414H143.169C142.616 242.414 142.082 242.414 141.53 242.395C145.248 235.302 154.438 229.525 168.871 225.235C192.38 218.256 201.284 209.581 214.707 192.802C220.999 184.966 228.34 181.801 235.032 180.866Z" fill="#FFED9F"/>
<path d="M138.688 154.974C132.454 165.823 116.838 169.941 93.7293 174.994C73.7284 179.36 63.5659 188.188 58.5132 194.995C58.1891 194.461 57.8649 193.927 57.5408 193.393C57.9984 192.783 58.5131 192.173 59.0661 191.525C64.2903 185.5 74.4911 177.473 93.3671 173.335C116.037 168.378 131.329 164.355 137.22 154.135C140.977 147.576 140.824 138.615 136.744 125.916C133.293 115.201 128.107 104.447 123.111 94.0559C115.618 78.4784 108.373 63.4539 107.915 50.317C108.487 50.1072 109.04 49.8975 109.612 49.6877C109.86 62.6149 117.105 77.6776 124.636 93.3123C129.67 103.761 134.875 114.553 138.364 125.402C142.597 138.577 142.712 147.976 138.688 154.974Z" fill="#FFED9F"/>
<path d="M116.438 138.348C112.491 145.784 100.231 148.834 78.9908 151.866C63.5468 154.078 53.041 159.226 46.158 164.259C46.0245 163.63 45.891 162.982 45.7576 162.353C52.8313 157.357 63.3751 152.381 78.7429 150.188C98.9535 147.309 111.347 144.316 114.931 137.547C117.258 133.143 116.171 126.793 111.385 116.993C110.336 114.858 109.307 112.779 108.315 110.758C99.2968 92.6068 91.9371 77.792 94.3967 56.6471C95.0068 56.3039 95.5978 55.9607 96.227 55.6366C93.367 76.8196 100.441 91.0815 109.841 109.996C110.851 112.017 111.881 114.095 112.929 116.23C117.963 126.603 119.05 133.409 116.438 138.348Z" fill="#FFED9F"/>
<path d="M71.4025 124.029C69.1717 124.887 66.6549 125.859 63.9665 126.984C53.7658 131.312 47.4929 135.984 43.9656 139.282C43.9846 138.481 44.0419 137.68 44.0991 136.88C47.8933 133.6 53.9946 129.386 63.3182 125.44C66.0257 124.296 68.5616 123.323 70.8114 122.465C84.1581 117.355 89.6874 115.239 85.9504 94.2084C83.4717 80.2516 84.0056 69.5552 85.0352 62.6721C85.6835 62.1955 86.3317 61.7379 86.9991 61.2803C85.8551 67.9155 84.9779 79.1076 87.6091 93.9224C91.5941 116.307 84.8445 118.9 71.4025 124.029Z" fill="#FFED9F"/>
<path d="M70.4874 98.1552C66.2356 104.714 57.5221 107.021 50.3721 107.765C50.6009 107.155 50.8487 106.545 51.0966 105.934C57.7127 105.134 65.3775 102.922 69.0765 97.221C72.1843 92.4352 72.07 85.8 68.7143 77.4488C69.1337 76.9721 69.5341 76.5146 69.9726 76.057C73.8431 85.3234 74.0148 92.7403 70.4874 98.1552Z" fill="#FFED9F"/>
<path d="M240.238 122.179C225.137 119.167 218.788 109.462 212.61 100.043C211.295 98.0217 209.922 95.9435 208.511 93.9987C207.443 92.5306 206.433 91.0433 205.479 89.6133C198.405 79.1648 191.713 69.2883 157.736 63.8733C141.377 61.2612 130.013 56.0179 123.988 48.2577C123.397 47.4951 122.901 46.7515 122.463 46.027C123.054 45.8935 123.645 45.7791 124.236 45.6647C124.579 46.2176 124.98 46.7706 125.418 47.3426C129.403 52.3952 138.288 59.0685 158.003 62.2145C192.705 67.7439 199.588 77.9064 206.871 88.6791C207.824 90.09 208.816 91.5581 209.884 93.0072C211.333 94.9901 212.705 97.0875 214.04 99.1276C219.894 108.07 225.919 117.26 239.856 120.349C239.971 120.94 240.123 121.55 240.238 122.179Z" fill="#FFED9F"/>
<path d="M233.183 101.168C222.715 98.3077 217.014 91.0433 211.027 83.4167C204.278 74.8367 196.651 65.1127 180.711 59.8884C163.742 54.3209 155.563 48.5628 151.616 44.2156C152.493 44.2919 153.389 44.3682 154.266 44.4826C158.403 48.3912 166.278 53.3867 181.226 58.2868C197.643 63.6636 205.46 73.6164 212.343 82.3871C218.082 89.6896 223.192 96.1914 232.191 99.1276C232.535 99.795 232.859 100.481 233.183 101.168Z" fill="#FFED9F"/>
<path d="M207.195 118.156C203.973 102.007 181.608 78.7644 161.206 70.2988C150.739 65.9706 141.816 65.9516 135.39 70.2225C131.443 72.8537 134.284 80.9761 138.612 93.255C140.576 98.8225 142.788 105.114 144.637 111.769C146.106 117.05 147.04 122.923 147.955 128.586C150.624 145.174 153.141 160.846 167.918 162.581C168.814 162.696 169.729 162.734 170.644 162.734C179.491 162.734 189.311 157.929 196.861 149.731C205.422 140.445 209.292 128.643 207.195 118.156ZM195.603 148.587C187.614 157.243 177.089 161.952 168.108 160.904C154.59 159.321 152.169 144.258 149.614 128.319C148.699 122.599 147.745 116.688 146.258 111.311C144.39 104.6 142.159 98.2696 140.195 92.6831C136.572 82.4061 133.445 73.5401 136.305 71.6335C143.798 66.638 153.618 69.0022 160.539 71.8622C180.159 79.9846 202.448 103.093 205.517 118.48C207.519 128.433 203.801 139.701 195.603 148.587Z" fill="#FFED9F"/>
<path d="M189.883 101.797C179.835 89.9947 164.2 78.5547 151.082 78.5547C150.453 78.5547 149.862 78.5738 149.252 78.631C148.032 78.7263 147.116 79.3364 146.602 80.347C143.513 86.4102 155.544 106.525 155.658 106.716C158.69 111.769 159.262 118.938 159.796 125.878C160.597 136.174 161.359 145.898 170.397 146.718C171.312 146.794 172.227 146.852 173.123 146.852C186.203 146.852 197.586 138.291 200.751 125.649C202.067 120.368 197.91 111.216 189.883 101.797ZM199.111 125.23C195.927 137.909 183.915 146.241 170.53 145.021C162.904 144.335 162.236 135.717 161.455 125.745C160.902 118.614 160.33 111.235 157.069 105.839C152.207 97.7739 146.201 84.7704 148.07 81.1096C148.337 80.6139 148.737 80.3469 149.366 80.3088C162.255 79.222 178.348 90.8527 188.586 102.884C196.156 111.769 200.293 120.54 199.111 125.23Z" fill="#FFED9F"/>
<path d="M186.184 121.035C185.364 112.303 175.64 99.4327 168.013 99.4327C167.289 99.4327 166.869 99.7949 166.64 100.1C165.725 101.32 166.412 103.742 167.804 108.261C168.719 111.216 169.748 114.572 169.977 117.279C170.072 118.366 170.072 119.453 170.092 120.501C170.13 123.514 170.187 126.355 172.17 127.975C173.218 128.833 174.706 129.253 176.708 129.253C177.966 129.253 179.434 129.081 181.112 128.776C184.792 128.033 186.584 125.306 186.184 121.035ZM180.826 127.079C176.994 127.804 174.515 127.67 173.257 126.641C171.884 125.516 171.846 123.171 171.808 120.444C171.788 119.376 171.769 118.271 171.674 117.127C171.445 114.228 170.378 110.777 169.424 107.727C168.7 105.362 167.594 101.816 167.975 101.111H167.994C174.629 101.111 183.762 113.447 184.487 121.188C184.811 124.563 183.572 126.546 180.826 127.079Z" fill="#FFED9F"/>
</g>
<path opacity="0.65" d="M240.886 161.399C239.532 168.53 237.34 175.661 234.289 182.678C206.547 246.532 122.558 262.91 73.3471 213.699C43.279 183.917 37.7497 143.686 49.8761 109.843C59.9433 133.238 76.169 168.321 133.598 186.014C174.42 198.579 221.018 187.692 240.886 161.399Z" fill="url(#paint2_linear_102_203)"/>
<path opacity="0.65" d="M242.583 143.515C242.564 149.426 242.011 155.412 240.867 161.399C239.514 168.53 237.321 175.661 234.27 182.678C206.528 246.532 122.54 262.91 73.3285 213.699C67.475 207.903 62.5558 201.706 58.5137 195.243C197.433 258.43 241.344 139.206 241.344 139.206L242.583 143.515Z" fill="url(#paint3_linear_102_203)"/>
</g>
<defs>
<radialGradient id="paint0_radial_102_203" cx="0" cy="0" r="1" gradientUnits="userSpaceOnUse" gradientTransform="translate(143.979 141.972) rotate(0.490606) scale(120.099 114.361)">
<stop stop-color="#FFD83D"/>
<stop offset="1" stop-color="#FCC724" stop-opacity="0"/>
</radialGradient>
<radialGradient id="paint1_radial_102_203" cx="0" cy="0" r="1" gradientUnits="userSpaceOnUse" gradientTransform="translate(144.92 105.075) scale(99.3385 99.3385)">
<stop stop-color="#FFD83D"/>
<stop offset="1" stop-color="#FC7B24"/>
</radialGradient>
<linearGradient id="paint2_linear_102_203" x1="127.524" y1="244.009" x2="142.755" y2="146.421" gradientUnits="userSpaceOnUse">
<stop stop-color="#E04127"/>
<stop offset="1" stop-color="#E04127" stop-opacity="0.1"/>
</linearGradient>
<linearGradient id="paint3_linear_102_203" x1="170.211" y1="249.37" x2="145.674" y2="149.53" gradientUnits="userSpaceOnUse">
<stop stop-color="#C22C27"/>
<stop offset="1" stop-color="#D33127" stop-opacity="0.2"/>
</linearGradient>
<clipPath id="clip0_102_203">
<rect width="286" height="286" fill="white"/>
</clipPath>
</defs>
</svg>
